<?xml version="1.0" encoding="UTF-8" standalone="no"?>
<svg width="32px" height="22px" viewBox="0 0 32 22" version="1.1" xmlns="http://www.w3.org/2000/svg" xmlns:xlink="http://www.w3.org/1999/xlink">
    <!-- Generator: Sketch 42 (36781) - http://www.bohemiancoding.com/sketch -->
    <title>behance</title>
    <desc>Created with Sketch.</desc>
    <defs></defs>
    <g id="Page-1" stroke="none" stroke-width="1" fill="none" fill-rule="evenodd">
        <g id="Group" transform="translate(-313.000000, -5.000000)" fill="#000000">
            <g id="behance" transform="translate(313.000000, 5.000000)">
                <path d="M10.0605,17.1855 L4.5505,17.1855 L4.5505,11.8815 L10.3265,11.8815 C10.3265,11.8815 12.4185,11.8545 12.4185,14.6075 C12.4185,16.9025 10.8885,17.1625 10.0605,17.1855 L10.0605,17.1855 Z M4.5505,4.3945 L9.5835,4.3945 L10.3265,4.3945 C10.3265,4.3945 11.7305,4.3945 11.7305,6.4585 C11.7305,8.5235 10.9045,8.8225 9.9685,8.8225 L4.5505,8.8225 L4.5505,4.3945 Z M12.9145,9.9275 C12.9145,9.9275 15.9425,9.7025 15.9425,6.1515 C15.9425,2.5995 13.4655,0.8665 10.3265,0.8665 L4.5505,0.8665 L4.3805,0.8665 L-0.0005,0.8665 L-0.0005,20.7125 L4.3805,20.7125 L4.5505,20.7125 L10.3265,20.7125 C10.3265,20.7125 16.6305,20.9115 16.6305,14.8555 C16.6305,14.8555 16.9065,9.9275 12.9145,9.9275 L12.9145,9.9275 Z" id="Fill-17"></path>
                <path d="M28.143,11.882 L21.624,11.882 C21.624,11.882 22.051,8.823 25.116,8.823 C28.182,8.823 28.143,11.882 28.143,11.882 M25.039,5.916 C17.407,5.916 17.414,13.541 17.414,13.541 C17.414,13.541 16.89,21.127 25.039,21.127 C25.039,21.127 31.83,21.515 31.83,15.85 L28.337,15.85 C28.337,15.85 28.454,17.984 25.155,17.984 C25.155,17.984 21.663,18.218 21.663,14.531 L31.946,14.531 C31.946,14.531 33.071,5.916 25.039,5.916" id="Fill-19"></path>
                <polygon id="Fill-21" points="28.957 2 20.769 2 20.769 4 28.957 4"></polygon>
            </g>
        </g>
    </g>
</svg>