<?xml version="1.0" encoding="UTF-8" standalone="no"?>
<svg width="1620px" height="500px" viewBox="0 0 1620 500" version="1.1" xmlns="http://www.w3.org/2000/svg" xmlns:xlink="http://www.w3.org/1999/xlink" style="background: #FFFFFF;">
    <!-- Generator: Sketch 42 (36781) - http://www.bohemiancoding.com/sketch -->
    <title>Artboard 6</title>
    <desc>Created with Sketch.</desc>
    <defs>
        <linearGradient x1="27.1034671%" y1="15.4187914%" x2="50%" y2="91.8387515%" id="linearGradient-1">
            <stop stop-color="#00C349" offset="0%"></stop>
            <stop stop-color="#2A7145" offset="100%"></stop>
        </linearGradient>
        <linearGradient x1="50%" y1="0%" x2="50%" y2="100%" id="linearGradient-2">
            <stop stop-color="#FFCF62" offset="0%"></stop>
            <stop stop-color="#FAD8AB" offset="100%"></stop>
        </linearGradient>
        <linearGradient x1="42.802593%" y1="20.5581259%" x2="36.9530476%" y2="75.1536627%" id="linearGradient-3">
            <stop stop-color="#FAD7A8" offset="0%"></stop>
            <stop stop-color="#FED172" offset="100%"></stop>
        </linearGradient>
        <linearGradient x1="93.5156957%" y1="83.6940219%" x2="0%" y2="10.224685%" id="linearGradient-4">
            <stop stop-color="#FED172" offset="0%"></stop>
            <stop stop-color="#FAD7A4" offset="100%"></stop>
        </linearGradient>
        <linearGradient x1="141.133002%" y1="54.4114709%" x2="14.3505944%" y2="54.4114699%" id="linearGradient-5">
            <stop stop-color="#FAD79F" offset="0%"></stop>
            <stop stop-color="#FDD178" offset="100%"></stop>
        </linearGradient>
    </defs>
    <g id="Page-1" stroke="none" stroke-width="1" fill="none" fill-rule="evenodd">
        <g id="Artboard-6">
            <g id="Group-6" transform="translate(1109.000000, 34.000000)">
                <path d="M195,183 C195,183 254,230 293,240 C332,250 338,260 342,273 C346,286 335,311 329,311 C323,311 313,312 307,324 C301,336 281,356 268,356 C255,356 242,359 238,365 C234,371 225,378 225,378 C225,378 202,386 195,386 C188,386 160,387 154,387 C148,387 143,395 124,391 C105,387 82,382 89,363 C96,344 119,217 119,217 L195,183 Z" id="Path-4" fill="url(#linearGradient-1)"></path>
                <path d="M116.66874,259.501572 C116.66874,259.501572 112.302563,289.183314 112.362024,314.053309 C112.421485,338.923303 117.185096,341.803479 116.66874,345.635893 C115.70164,352.813753 110.926452,403.058774 110.926452,403.058774 C110.926452,403.058774 96.570732,401.623202 86.5217278,404.494346 C76.4727237,407.36549 72.216077,418.694071 84.6420161,418.694071 C97.0679552,418.694071 121.793887,426.027926 124.870745,420.491352 C127.947603,414.954777 125.227339,410.085063 126.717744,405.929918 C127.996642,402.364441 133.458642,385.079835 135.53689,373.189316 C137.615139,361.298796 137.593665,345.348912 136.766748,341.214331 C137.533719,339.936046 139.368497,337.939278 143.675213,326.454702 C147.981929,314.970125 153.613965,276.810882 155.973795,266.191647 C158.844939,253.271499 116.66874,259.501572 116.66874,259.501572 Z" id="Path-7" fill="url(#linearGradient-2)"></path>
                <path d="M198.66874,261.501572 C198.66874,261.501572 194.302563,291.183314 194.362024,316.053309 C194.421485,340.923303 199.185096,343.803479 198.66874,347.635893 C197.70164,354.813753 192.926452,405.058774 192.926452,405.058774 C192.926452,405.058774 178.570732,403.623202 168.521728,406.494346 C158.472724,409.36549 154.216077,420.694071 166.642016,420.694071 C179.067955,420.694071 203.793887,428.027926 206.870745,422.491352 C209.947603,416.954777 207.227339,412.085063 208.717744,407.929918 C209.996642,404.364441 215.458642,387.079835 217.53689,375.189316 C219.615139,363.298796 219.593665,347.348912 218.766748,343.214331 C219.533719,341.936046 221.368497,339.939278 225.675213,328.454702 C229.981929,316.970125 235.613965,278.810882 237.973795,268.191647 C240.844939,255.271499 198.66874,261.501572 198.66874,261.501572 Z" id="Path-7-Copy" fill="url(#linearGradient-2)" transform="translate(198.557002, 342.279627) scale(-1, 1) translate(-198.557002, -342.279627) "></path>
                <path d="M253.655844,264.108372 C253.655844,264.108372 240.30866,256.778056 230.655844,254.108372 C221.003027,251.438688 209.024288,249.553667 206.037788,248.993811 C203.051289,248.433954 204.493064,248.014648 219.037788,240.993811 C233.582512,233.972973 261.095987,220.007311 257.655844,215.993811 C255.245407,213.181634 256.037788,203.993811 246.037788,209.993811 C244.1998,211.096604 223.211386,216.623216 209.037788,223.993811 C194.86419,231.364405 189.55809,236.708108 188.919695,237.355073 C184.518719,241.815137 182.339439,246.376836 182.037788,249.993811 C181.636202,254.809067 184.466711,257.80207 189.037788,260.993811 C194.326527,264.686656 203.655844,276.108372 225.655844,280.108372 C247.655844,284.108372 244.655844,284.108372 254.655844,279.108372 C264.655844,274.108372 257.655844,259.108372 257.655844,259.108372 L253.655844,264.108372 Z" id="Path-5-Copy" fill="url(#linearGradient-3)" transform="translate(221.018894, 245.496905) scale(-1, -1) translate(-221.018894, -245.496905) "></path>
                <path d="M124.920218,205.773342 C124.920218,205.773342 122.75059,206.561701 114,205.773342 C105.24941,204.984983 109.786764,204.494166 108,204 C98.3471833,201.330316 76.4864416,203.830104 72.9202183,200.773342 C65.9202183,194.773342 37.9202183,154.773342 31.9202183,147.773342 C29.5097814,144.961165 26.9202183,139.773342 16.9202183,145.773342 C10.4402101,149.661346 10.9967936,160.21661 14.9202183,163.773342 C18.843643,167.330073 22.8710793,163.846 24.9202183,166.773342 C31.9202183,176.773342 51.9202183,209.773342 56.9202183,213.773342 C61.9202183,217.773342 73.9202183,227.773342 95.9202183,231.773342 C117.920218,235.773342 114.920218,235.773342 124.920218,230.773342 C134.920218,225.773342 127.920218,210.773342 127.920218,210.773342 L124.920218,205.773342 Z" id="Path-5" fill="url(#linearGradient-4)"></path>
                <path d="M96.0735596,114.928909 C95.2658962,106.131616 101.775441,99 110.608328,99 L204.923378,99 C213.758372,99 220.238842,106.13681 219.478873,114.925945 C219.478873,114.925945 215.726433,149.007357 215.726433,198.006318 C215.726433,247.005278 204.927069,282.494669 204.927069,282.494669 C202.758209,291.058027 193.829715,298 184.998656,298 L128.001344,298 C119.164046,298 110.474037,291.002272 108.752058,282.330011 C108.752058,282.330011 99.8052725,246.324816 99.8052725,197.21577 C99.8052725,148.106725 96.0735596,114.928909 96.0735596,114.928909 Z" id="Rectangle" fill="#81C267"></path>
                <path d="M101.07356,113.928909 C100.265896,105.131616 106.780708,98 115.614134,98 L198.917572,98 C207.755773,98 214.238842,105.13681 213.478873,113.925945 C213.478873,113.925945 209.726433,148.007357 209.726433,197.006318 C209.726433,246.005278 200.523899,279.396259 200.523899,279.396259 C198.577703,288.013967 189.830737,295 180.994914,295 L131.005086,295 C122.165721,295 113.672447,287.963887 112.183881,279.244826 C112.183881,279.244826 104.805272,245.324816 104.805272,196.21577 C104.805272,147.106725 101.07356,113.928909 101.07356,113.928909 Z" id="Rectangle" fill="#92DC75"></path>
                <g id="Group-2" transform="translate(150.000000, 142.000000)" fill="#09B048">
                    <path d="M16.009803,22.2470794 C15.8634542,26.0036312 15.1590736,33.7765064 15.1590736,33.7765064 C15.0624477,34.8761592 14.7222065,34.9106054 14.4072595,33.8548948 C14.4072595,33.8548948 11.8640039,25.7666735 11.6399534,21.9326486 C11.4159029,18.0986237 16.1561518,18.4905275 16.009803,22.2470794 Z" id="Rectangle-2-Copy-2" transform="translate(13.822688, 26.930881) scale(-1, 1) rotate(-26.000000) translate(-13.822688, -26.930881) "></path>
                    <path d="M12.7967158,16.6757956 C12.5878643,22.0366961 11.6353352,27.7166611 11.6353352,27.7166611 C11.4683488,28.8057418 10.4400317,29.6886161 9.33670722,29.6886161 L10.6021723,29.6886161 C9.4996615,29.6886161 8.42520472,28.820371 8.20942899,27.7377283 C8.20942899,27.7377283 6.88032829,21.6985383 6.56059024,16.2270776 C6.24085219,10.7556169 13.0055672,11.3148951 12.7967158,16.6757956 Z" id="Rectangle-2-Copy-3" transform="translate(9.675528, 21.034570) scale(-1, 1) rotate(90.000000) translate(-9.675528, -21.034570) "></path>
                    <path d="M11.4330794,5.45784685 C11.2242279,10.8187474 10.1451674,22.7617287 10.1451674,22.7617287 C10.0480624,23.8613221 9.07639532,24.7527186 7.97307086,24.7527186 L9.23853589,24.7527186 C8.13602513,24.7527186 7.13583133,23.8628065 7.00563122,22.7609367 C7.00563122,22.7609367 5.51669192,10.4805896 5.19695388,5.0091289 C4.87721583,-0.462331807 11.6419309,0.0969463328 11.4330794,5.45784685 Z" id="Rectangle-2-Copy-4" transform="translate(8.311891, 12.957646) scale(1, -1) rotate(-23.000000) translate(-8.311891, -12.957646) "></path>
                </g>
                <path d="M114.291041,149.00128 C120.926568,154.450666 129.731129,157.770492 139.391304,157.770492 C146.121282,157.770492 152.435985,156.159207 157.891304,153.339102 C163.346631,156.159208 169.66133,157.770492 176.391304,157.770492 C185.101988,157.770492 193.116987,155.071201 199.473347,150.545279 C206.043548,160.27666 217.880602,166.770492 231.391304,166.770492 C252.041952,166.770492 268.782609,151.59955 268.782609,132.885246 C268.782609,129.208246 268.136341,125.668036 266.941127,122.352812 C273.181042,116.297984 277,108.167911 277,99.2295082 C277,83.4948926 265.165841,70.2651202 249.12352,66.4511229 C249.127382,66.227397 249.12932,66.0032479 249.12932,65.7786885 C249.12932,42.5057713 228.31081,23.6393443 202.629877,23.6393443 C198.753939,23.6393443 194.988761,24.0691001 191.3892,24.8788994 C182.869532,14.5270987 170.415685,8 156.542921,8 C142.594352,8 130.08025,14.5986251 121.557334,25.0489361 C117.73785,24.1293853 113.725273,23.6393443 109.586399,23.6393443 C83.9054661,23.6393443 63.0869565,42.5057713 63.0869565,65.7786885 C63.0869565,66.1588669 63.092512,66.5378693 63.1035534,66.9156328 C47.9698484,71.2531453 37,84.080376 37,99.2295082 C37,107.73847 40.460814,115.514908 46.1764126,121.46588 C44.7674511,125.033807 44,128.878306 44,132.885246 C44,151.59955 60.7406572,166.770492 81.3913043,166.770492 C95.6046069,166.770492 107.965665,159.583698 114.291041,149.00128 Z" id="Combined-Shape-Copy" fill="#09B048"></path>
                <path d="M114.291041,141.00128 C120.926568,146.450666 129.731129,149.770492 139.391304,149.770492 C146.121282,149.770492 152.435985,148.159207 157.891304,145.339102 C163.346631,148.159208 169.66133,149.770492 176.391304,149.770492 C185.101988,149.770492 193.116987,147.071201 199.473347,142.545279 C206.043548,152.27666 217.880602,158.770492 231.391304,158.770492 C252.041952,158.770492 268.782609,143.59955 268.782609,124.885246 C268.782609,121.208246 268.136341,117.668036 266.941127,114.352812 C273.181042,108.297984 277,100.167911 277,91.2295082 C277,75.4948926 265.165841,62.2651202 249.12352,58.4511229 C249.127382,58.227397 249.12932,58.0032479 249.12932,57.7786885 C249.12932,34.5057713 228.31081,15.6393443 202.629877,15.6393443 C198.753939,15.6393443 194.988761,16.0691001 191.3892,16.8788994 C182.869532,6.52709874 170.415685,0 156.542921,0 C142.594352,0 130.08025,6.59862508 121.557334,17.0489361 C117.73785,16.1293853 113.725273,15.6393443 109.586399,15.6393443 C83.9054661,15.6393443 63.0869565,34.5057713 63.0869565,57.7786885 C63.0869565,58.1588669 63.092512,58.5378693 63.1035534,58.9156328 C47.9698484,63.2531453 37,76.080376 37,91.2295082 C37,99.7384699 40.460814,107.514908 46.1764126,113.46588 C44.7674511,117.033807 44,120.878306 44,124.885246 C44,143.59955 60.7406572,158.770492 81.3913043,158.770492 C95.6046069,158.770492 107.965665,151.583698 114.291041,141.00128 Z" id="Combined-Shape" fill="#00C349"></path>
                <ellipse id="Oval-2-Copy" fill="#FFFFFF" cx="181" cy="173" rx="13" ry="5"></ellipse>
                <ellipse id="Oval-2-Copy-2" fill="#FFFFFF" cx="133" cy="173" rx="13" ry="5"></ellipse>
                <circle id="Oval-3" fill="#4E4E4E" cx="133" cy="173" r="5"></circle>
                <circle id="Oval-3-Copy" fill="#4E4E4E" cx="181" cy="173" r="5"></circle>
                <path d="M157,202.831869 C165.284271,202.831869 172,198.578574 172,193.331869 C172,188.085164 165.284271,192 157,192 C148.715729,192 142,188.085164 142,193.331869 C142,198.578574 148.715729,202.831869 157,202.831869 Z" id="Oval-4" fill="#CF4F4B"></path>
                <path d="M97.3874824,135.930921 C107.506758,135.930921 116.069222,131.06332 116.069222,126.979254 C116.069222,122.895189 104.393135,128.925269 97.3874824,128.925269 C90.3818302,128.925269 78.7057431,122.895189 78.7057431,126.979254 C78.7057431,131.06332 87.268207,135.930921 97.3874824,135.930921 Z" id="Oval-5" fill="#09B048" transform="translate(97.387482, 130.745557) rotate(-14.000000) translate(-97.387482, -130.745557) "></path>
                <path d="M195.38149,72.6061638 C205.500765,72.6061638 214.063229,67.7385628 214.063229,63.6544971 C214.063229,59.5704314 202.387142,65.6005116 195.38149,65.6005116 C188.375838,65.6005116 176.69975,59.5704314 176.69975,63.6544971 C176.69975,67.7385628 185.262214,72.6061638 195.38149,72.6061638 Z" id="Oval-5-Copy-3" fill="#09B048" transform="translate(195.381490, 67.420800) rotate(17.000000) translate(-195.381490, -67.420800) "></path>
                <path d="M149.988643,101.33 C158.858959,101.33 166.364611,97.0631768 166.364611,93.4831819 C166.364611,89.903187 156.129631,95.1890119 149.988643,95.1890119 C143.847655,95.1890119 133.612674,89.903187 133.612674,93.4831819 C133.612674,97.0631768 141.118326,101.33 149.988643,101.33 Z" id="Oval-5-Copy-4" fill="#09B048" transform="translate(149.988643, 96.784633) rotate(-15.000000) translate(-149.988643, -96.784633) "></path>
                <path d="M207.387482,135.930921 C217.506758,135.930921 226.069222,131.06332 226.069222,126.979254 C226.069222,122.895189 214.393135,128.925269 207.387482,128.925269 C200.38183,128.925269 188.705743,122.895189 188.705743,126.979254 C188.705743,131.06332 197.268207,135.930921 207.387482,135.930921 Z" id="Oval-5-Copy" fill="#09B048" transform="translate(207.387482, 130.745557) scale(-1, 1) rotate(-34.000000) translate(-207.387482, -130.745557) "></path>
                <path d="M109.722056,53.3527795 C121.825063,53.3527795 132.066068,47.5309589 132.066068,42.6462739 C132.066068,37.7615889 118.101061,44.9737751 109.722056,44.9737751 C101.343052,44.9737751 87.3780447,37.7615889 87.3780447,42.6462739 C87.3780447,47.5309589 97.6190501,53.3527795 109.722056,53.3527795 Z" id="Oval-5-Copy-2" fill="#09B048" transform="translate(109.722056, 47.150904) scale(1, -1) rotate(36.000000) translate(-109.722056, -47.150904) "></path>
                <rect id="Rectangle-2" fill="#B00909" transform="translate(14.222264, 140.341965) rotate(-20.000000) translate(-14.222264, -140.341965) " x="12.2222641" y="104.341965" width="4" height="72" rx="2"></rect>
                <ellipse id="Oval-6" fill="url(#linearGradient-5)" cx="18.5" cy="159.5" rx="6.5" ry="7.5"></ellipse>
                <path d="M16.6302924,151.806686 C18.0460705,151.183519 21.3011805,152.547481 22.6302924,151.806686 C23.9594043,151.06589 29,145.496905 29,149.287981 C29,151.76403 26.8735241,155.585105 24.6302924,156.844096 C22.3870607,158.103088 19.6302924,157.844096 19.6302924,157.844096" id="Path-6" fill="url(#linearGradient-5)" transform="translate(22.815146, 152.922048) scale(-1, -1) translate(-22.815146, -152.922048) "></path>
            </g>
            <g id="Group-8" transform="translate(621.000000, 131.000000)">
                <path d="M60.2039033,214.884071 C60.2039033,214.884071 57.0874966,236.10562 57.1299375,253.886916 C57.1723784,271.668211 60.5724579,273.72745 60.2039033,276.46751 C59.5136248,281.599463 56.1052822,317.523136 56.1052822,317.523136 C56.1052822,317.523136 45.8587295,316.496745 38.6861426,318.549526 C31.5135556,320.602308 28.4753273,328.701901 37.3444777,328.701901 C46.213628,328.701901 63.8620331,333.945386 66.0581741,329.986903 C68.2543151,326.028419 66.3126969,322.546721 67.3764903,319.575917 C68.2893177,317.026708 72.1878796,304.668738 73.6712524,296.167375 C75.1546251,287.666012 75.1392976,276.262327 74.5490772,273.306227 C75.0965111,272.392291 76.4061034,270.964662 79.4800692,262.753537 C82.554035,254.542412 86.5739629,227.259705 88.2583175,219.667273 C90.307628,210.429757 60.2039033,214.884071 60.2039033,214.884071 Z" id="Path-7-Copy-2" fill="url(#linearGradient-2)" transform="translate(60.124149, 272.637941) rotate(-5.000000) translate(-60.124149, -272.637941) "></path>
                <path d="M112.113792,216.314011 C112.113792,216.314011 108.997385,237.53556 109.039826,255.316855 C109.082267,273.09815 112.482347,275.157389 112.113792,277.897449 C111.423513,283.029403 108.015171,318.953075 108.015171,318.953075 C108.015171,318.953075 97.7686181,317.926685 90.5960312,319.979466 C83.4234443,322.032247 80.385216,330.131841 89.2543663,330.131841 C98.1235167,330.131841 115.771922,335.375326 117.968063,331.416842 C120.164204,327.458359 118.222586,323.97666 119.286379,321.005857 C120.199206,318.456648 124.097768,306.098677 125.581141,297.597315 C127.064514,289.095952 127.049186,277.692266 126.458966,274.736166 C127.0064,273.822231 128.315992,272.394602 131.389958,264.183477 C134.463924,255.972352 138.483852,228.689645 140.168206,221.097212 C142.217517,211.859696 112.113792,216.314011 112.113792,216.314011 Z" id="Path-7-Copy-3" fill="url(#linearGradient-2)" transform="translate(112.034038, 274.067881) scale(-1, 1) rotate(-5.000000) translate(-112.034038, -274.067881) "></path>
                <g id="Group-3-Copy-5" transform="translate(0.517112, -0.000000)">
                    <path d="M37.8598103,91.8160763 C37.070952,83.0180947 43.5879451,75.8859215 52.4291451,75.8859215 L120.78287,75.8859215 C129.61815,75.8859215 136.10764,83.0188231 135.370939,91.8202787 C135.370939,91.8202787 132.663612,115.522619 132.663612,154.360044 C132.663612,193.197468 124.951079,216.53342 124.951079,216.53342 C122.76409,225.092792 113.831619,232.031534 104.997101,232.031534 L66.2082399,232.031534 C57.3749509,232.031534 48.6558172,225.04281 46.9417726,216.381401 C46.9417726,216.381401 40.5484031,192.658123 40.5484031,153.733442 C40.5484031,114.808762 37.8598103,91.8160763 37.8598103,91.8160763 Z" id="Rectangle" fill="#81C267"></path>
                    <path d="M42.2204267,89.1171161 C41.495536,80.3263675 48.0605591,73.5503836 56.8801656,73.9823537 L116.33185,76.8942014 C125.153091,77.3262516 131.6312,84.809399 130.894499,93.6108546 C130.894499,93.6108546 128.187172,117.313195 128.187172,156.15062 C128.187172,194.988044 120.977553,212.207596 120.977553,212.207596 C118.512813,220.683785 109.347203,227.555094 100.513089,227.555094 L70.6922519,227.555094 C61.8547809,227.555094 52.9008415,220.616317 50.9950152,211.994878 C50.9950152,211.994878 45.0248429,194.448699 45.0248429,155.524018 C45.0248429,116.599338 42.2204267,89.1171161 42.2204267,89.1171161 Z" id="Rectangle" fill="#92DC75"></path>
                    <path d="M154.259782,69.1898484 C157.536607,64.1983176 159.418583,58.3669942 159.418583,52.1373279 C159.418583,33.6908106 142.917471,18.7369537 122.562319,18.7369537 C119.490183,18.7369537 116.505838,19.0775856 113.652764,19.7194466 C106.899927,11.5144301 97.0287923,6.34093857 86.0329991,6.34093857 C74.9771221,6.34093857 65.0582282,11.5711231 58.3028167,19.8542206 C55.2754274,19.1253688 52.0949899,18.7369537 48.8144467,18.7369537 C28.4592943,18.7369537 11.9581831,33.6908106 11.9581831,52.1373279 C11.9581831,58.0772956 13.6691933,63.6551072 16.6689351,68.4880799 C6.79995668,72.8471177 0,82.0265474 0,92.6452704 C0,107.478552 13.2689348,119.503303 29.6369955,119.503303 C36.6482974,119.503303 43.0909532,117.29693 48.1656494,113.608548 C53.5267439,120.52856 62.3996751,125.051625 72.4383308,125.051625 C77.7726276,125.051625 82.7777705,123.774492 87.1017512,121.539228 C91.4257374,123.774493 96.4308777,125.051625 101.765172,125.051625 C110.820494,125.051625 118.927283,121.371272 124.36354,115.571098 C128.861774,118.065558 134.151014,119.503303 139.810803,119.503303 C156.178864,119.503303 169.447799,107.478552 169.447799,92.6452704 C169.447799,82.5663986 163.32168,73.7841942 154.259782,69.1898484 Z" id="Combined-Shape-Copy" fill="#09B048"></path>
                    <path d="M152.788645,64.9131656 C156.967218,59.4972706 159.418583,52.9062605 159.418583,45.7963893 C159.418583,27.349872 142.917471,12.3960151 122.562319,12.3960151 C119.490183,12.3960151 116.505838,12.7366471 113.652764,13.378508 C106.899927,5.17349152 97.0287923,0 86.0329991,0 C74.9771221,0 65.0582282,5.23018453 58.3028167,13.5132821 C55.2754274,12.7844302 52.0949899,12.3960151 48.8144467,12.3960151 C28.4592943,12.3960151 11.9581831,27.349872 11.9581831,45.7963893 C11.9581831,52.4753049 14.1213814,58.6963533 17.8474832,63.9155274 C8.19886598,68.3449599 1.58523464,77.4173355 1.58523464,87.8895665 C1.58523464,102.722848 14.8541695,114.747599 31.2222301,114.747599 C38.161934,114.747599 44.5445463,112.586058 49.5949916,108.965375 C55.0310654,114.918095 63.245968,118.710686 72.4383308,118.710686 C77.7726276,118.710686 82.7777705,117.433553 87.1017512,115.19829 C91.4257374,117.433555 96.4308777,118.710686 101.765172,118.710686 C109.818843,118.710686 117.122218,115.799503 122.463855,111.074988 C126.856924,113.409337 131.972483,114.747599 137.432951,114.747599 C153.801012,114.747599 167.069947,102.722848 167.069947,87.8895665 C167.069947,78.1506113 161.350075,69.6223364 152.788645,64.9131656 Z" id="Combined-Shape" fill="#00C349"></path>
                    <ellipse id="Oval-2-Copy" fill="#FFFFFF" cx="105.418104" cy="139.975143" rx="10.3040252" ry="6.34093857"></ellipse>
                    <ellipse id="Oval-2-Copy-2" fill="#FFFFFF" cx="67.3724723" cy="139.975143" rx="10.3040252" ry="6.34093857"></ellipse>
                    <circle id="Oval-3" fill="#4E4E4E" cx="67.3724723" cy="139.975143" r="6.34093857"></circle>
                    <circle id="Oval-3-Copy" fill="#4E4E4E" cx="105.418104" cy="139.975143" r="6.34093857"></circle>
                    <path d="M86.8194648,162.540448 C91.2565892,162.540448 94.8535893,159.169213 94.8535893,155.010583 C94.8535893,150.851954 91.2565892,155.010583 86.8194648,155.010583 C82.3823404,155.010583 78.7853403,150.851954 78.7853403,155.010583 C78.7853403,159.169213 82.3823404,162.540448 86.8194648,162.540448 Z" id="Oval-4" fill="#CF4F4B"></path>
                    <path d="M50.2372666,89.2535958 C58.2579796,89.2535958 65.0447367,85.395451 65.0447367,82.1583497 C65.0447367,78.9212485 55.7900679,83.7007946 50.2372666,83.7007946 C44.6844653,83.7007946 35.4297965,78.9212485 35.4297965,82.1583497 C35.4297965,85.395451 42.2165536,89.2535958 50.2372666,89.2535958 Z" id="Oval-5-Copy-3" fill="#09B048" transform="translate(50.237267, 85.143587) rotate(17.000000) translate(-50.237267, -85.143587) "></path>
                    <path d="M118.095541,96.8374395 C125.126307,96.8374395 131.075417,93.4554814 131.075417,90.6179154 C131.075417,87.7803495 122.962994,91.9699859 118.095541,91.9699859 C113.228087,91.9699859 105.115665,87.7803495 105.115665,90.6179154 C105.115665,93.4554814 111.064774,96.8374395 118.095541,96.8374395 Z" id="Oval-5-Copy-4" fill="#09B048" transform="translate(118.095541, 93.234703) rotate(-15.000000) translate(-118.095541, -93.234703) "></path>
                    <path d="M57.0640071,53.2434868 C64.0947733,53.2434868 70.0438833,49.8615288 70.0438833,47.0239628 C70.0438833,44.1863968 61.9314606,48.3760332 57.0640071,48.3760332 C52.1965535,48.3760332 44.0841309,44.1863968 44.0841309,47.0239628 C44.0841309,49.8615288 50.0332408,53.2434868 57.0640071,53.2434868 Z" id="Oval-5-Copy-6" fill="#09B048" transform="translate(57.064007, 49.640751) rotate(-35.000000) translate(-57.064007, -49.640751) "></path>
                    <path d="M106.917633,59.9014937 C113.052662,59.9014937 118.243841,56.9504055 118.243841,54.4743526 C118.243841,51.9982996 111.164961,55.6541659 106.917633,55.6541659 C102.670306,55.6541659 95.5914259,51.9982996 95.5914259,54.4743526 C95.5914259,56.9504055 100.782604,59.9014937 106.917633,59.9014937 Z" id="Oval-5-Copy-5" fill="#09B048" transform="translate(106.917633, 56.757755) rotate(36.000000) translate(-106.917633, -56.757755) "></path>
                </g>
            </g>
            <g id="Group" transform="translate(850.000000, 53.000000)">
                <path d="M142.164169,209.857771 C142.164169,209.857771 154.241003,215.624762 162.97509,217.725087 C171.709177,219.825411 174.547812,221.308417 177.250065,221.748874 C179.952317,222.189331 186.647766,222.519212 173.48737,228.042727 C160.326974,233.566242 135.432158,244.553469 138.544878,247.711017 C140.725896,249.923445 140.008931,257.151796 149.057158,252.431406 C150.720212,251.563804 169.711004,247.215843 182.535597,241.417164 C195.36019,235.618485 200.161269,231.414425 200.738903,230.905436 C204.721006,227.396564 206.692868,223.807731 206.965808,220.962143 C207.329172,217.173828 204.768064,214.819138 200.63205,212.308095 C195.846679,209.402816 187.405302,200.416992 167.499203,197.270065 C147.593105,194.123139 150.307573,194.123139 141.259346,198.056797 C132.211119,201.990455 138.544878,213.791429 138.544878,213.791429" id="Path-5-Copy-2" fill="url(#linearGradient-3)"></path>
                <path d="M71.8358313,209.857771 C71.8358313,209.857771 59.7589974,215.624762 51.0249101,217.725087 C42.2908227,219.825411 39.4521878,221.308417 36.7499355,221.748874 C34.0476832,222.189331 27.352234,222.519212 40.5126301,228.042727 C53.6730262,233.566242 78.5678416,244.553469 75.4551219,247.711017 C73.274104,249.923445 73.9910686,257.151796 64.942842,252.431406 C63.2797883,251.563804 44.2889964,247.215843 31.4644035,241.417164 C18.6398105,235.618485 13.8387312,231.414425 13.261097,230.905436 C9.2789936,227.396564 7.30713207,223.807731 7.03419158,220.962143 C6.67082755,217.173828 9.23193589,214.819138 13.3679502,212.308095 C18.1533214,209.402816 26.5946982,200.416992 46.5007967,197.270065 C66.4068953,194.123139 63.6924273,194.123139 72.740654,198.056797 C81.7888806,201.990455 75.4551219,213.791429 75.4551219,213.791429" id="Path-5-Copy-2" fill="url(#linearGradient-3)"></path>
                <g id="Group-8-Copy">
                    <path d="M74.2388063,264.978449 C74.2388063,264.978449 70.3958941,291.147225 70.4482289,313.073746 C70.5005638,335.000267 74.6932793,337.539561 74.2388063,340.918392 C73.3876081,347.24672 69.1847031,391.54502 69.1847031,391.54502 C69.1847031,391.54502 56.5494452,390.279355 47.7047647,392.810686 C38.8600842,395.342017 35.1135756,405.329811 46.0503271,405.329811 C56.9870787,405.329811 78.7497295,411.795672 81.4578411,406.914376 C84.1659526,402.033079 81.7716989,397.739718 83.0834868,394.076352 C84.2091152,390.932865 89.0165207,375.693969 90.8457015,365.210745 C92.6748823,354.727521 92.6559816,340.665376 91.9281673,337.020141 C92.6032206,335.893147 94.2181087,334.132705 98.0086861,324.007379 C101.799263,313.882054 106.756328,280.239125 108.833344,270.876724 C111.360396,259.485732 74.2388063,264.978449 74.2388063,264.978449 Z" id="Path-7-Copy-2" fill="url(#linearGradient-2)" transform="translate(74.140459, 336.196063) rotate(-5.000000) translate(-74.140459, -336.196063) "></path>
                    <path d="M138.250074,266.74174 C138.250074,266.74174 134.407162,292.910516 134.459497,314.837037 C134.511831,336.763558 138.704547,339.302852 138.250074,342.681683 C137.398876,349.010011 133.195971,393.308311 133.195971,393.308311 C133.195971,393.308311 120.560713,392.042646 111.716032,394.573977 C102.871352,397.105309 99.1248432,407.093102 110.061595,407.093102 C120.998346,407.093102 142.760997,413.558963 145.469109,408.677667 C148.17722,403.79637 145.782966,399.503009 147.094754,395.839643 C148.220383,392.696156 153.027788,377.45726 154.856969,366.974036 C156.68615,356.490812 156.667249,342.428667 155.939435,338.783432 C156.614488,337.656438 158.229376,335.895996 162.019954,325.77067 C165.810531,315.645345 170.767596,282.002417 172.844612,272.640015 C175.371663,261.249023 138.250074,266.74174 138.250074,266.74174 Z" id="Path-7-Copy-3" fill="url(#linearGradient-2)" transform="translate(138.151727, 337.959354) scale(-1, 1) rotate(-5.000000) translate(-138.151727, -337.959354) "></path>
                    <g id="Group-3-Copy-5" transform="translate(0.637662, 0.000000)">
                        <path d="M46.3843393,109.5126 C45.5780699,100.711423 52.0896075,93.5766606 60.9273343,93.5766606 L152.664352,93.5766606 C161.502496,93.5766606 167.986513,100.711059 167.227723,109.512396 C167.227723,109.512396 163.590526,142.453576 163.590526,190.34489 C163.590526,238.236204 153.235111,270.650673 153.235111,270.650673 C151.004919,279.196011 142.036234,286.123376 133.189086,286.123376 L77.9281251,286.123376 C69.0872033,286.123376 60.3436126,279.131965 58.580283,270.479946 C58.580283,270.479946 50.0011606,237.571125 50.0011606,189.572214 C50.0011606,141.573303 46.3843393,109.5126 46.3843393,109.5126 Z" id="Rectangle" fill="#81C267"></path>
                        <path d="M51.7832825,106.209679 C51.0438709,97.4034886 57.601468,90.6151993 66.4275318,91.0474857 L147.164155,95.0018354 C155.991362,95.4341778 162.466513,102.919059 161.707723,111.720396 C161.707723,111.720396 158.070526,144.661576 158.070526,192.55289 C158.070526,240.444204 148.250972,265.296284 148.250972,265.296284 C145.724832,273.750157 136.504821,280.603376 127.672038,280.603376 L83.4451731,280.603376 C74.6058817,280.603376 65.6267312,273.674447 63.6484816,265.060211 C63.6484816,265.060211 55.5211606,239.779125 55.5211606,191.780214 C55.5211606,143.781303 51.7832825,106.209679 51.7832825,106.209679 Z" id="Rectangle" fill="#92DC75"></path>
                        <path d="M190.221255,85.31958 C194.261983,79.1644096 196.58269,71.9736718 196.58269,64.2917281 C196.58269,41.5449069 176.234794,23.104965 151.134391,23.104965 C147.34607,23.104965 143.666006,23.5250059 140.147815,24.3164993 C131.820738,14.1987063 119.648417,7.81915596 106.089253,7.81915596 C92.4559992,7.81915596 80.2247849,14.2686158 71.894533,24.4826923 C68.1613903,23.5839284 64.2395202,23.104965 60.1942075,23.104965 C35.0938049,23.104965 14.7459083,41.5449069 14.7459083,64.2917281 C14.7459083,71.6164378 16.855794,78.4945645 20.554844,84.4542134 C8.38518166,89.8294423 0,101.148806 0,114.242996 C0,132.534254 16.3622262,147.362249 36.546055,147.362249 C45.1918513,147.362249 53.1364371,144.64152 59.3941607,140.093292 C66.0050486,148.626517 76.9464626,154.20401 89.3253578,154.20401 C95.9032009,154.20401 102.075157,152.629149 107.407156,149.872794 C112.739162,152.629151 118.911115,154.20401 125.488954,154.20401 C136.655279,154.20401 146.651945,149.665683 153.355517,142.513357 C158.902393,145.589332 165.424675,147.362249 172.40389,147.362249 C192.587719,147.362249 208.949945,132.534254 208.949945,114.242996 C208.949945,101.814509 201.395688,90.9849726 190.221255,85.31958 Z" id="Combined-Shape-Copy" fill="#09B048"></path>
                        <path d="M188.40716,80.0459082 C193.559856,73.3674439 196.58269,65.2399178 196.58269,56.4725721 C196.58269,33.725751 176.234794,15.285809 151.134391,15.285809 C147.34607,15.285809 143.666006,15.70585 140.147815,16.4973433 C131.820738,6.37955038 119.648417,0 106.089253,0 C92.4559992,0 80.2247849,6.44945983 71.894533,16.6635363 C68.1613903,15.7647725 64.2395202,15.285809 60.1942075,15.285809 C35.0938049,15.285809 14.7459083,33.725751 14.7459083,56.4725721 C14.7459083,64.7084953 17.4133975,72.379812 22.0081385,78.8156945 C10.1102086,84.2777288 1.95478899,95.4650821 1.95478899,108.378629 C1.95478899,126.669887 18.3170152,141.497882 38.500844,141.497882 C47.0583512,141.497882 54.928896,138.832436 61.1567152,134.367689 C67.8600619,141.708124 77.9900456,146.384854 89.3253578,146.384854 C95.9032009,146.384854 102.075157,144.809993 107.407156,142.053638 C112.739162,144.809995 118.911115,146.384854 125.488954,146.384854 C135.42012,146.384854 144.426079,142.795009 151.012973,136.969101 C156.430166,139.847639 162.738279,141.497882 169.471706,141.497882 C189.655535,141.497882 206.017761,126.669887 206.017761,108.378629 C206.017761,96.3693012 198.964457,85.8528908 188.407163,80.045905 Z" id="Combined-Shape" fill="#00C349"></path>
                        <ellipse id="Oval-2-Copy" fill="#FFFFFF" cx="129.993468" cy="169.817982" rx="12.7061284" ry="5"></ellipse>
                        <ellipse id="Oval-2-Copy-2" fill="#FFFFFF" cx="83.0785321" cy="169.817982" rx="12.7061284" ry="5"></ellipse>
                        <ellipse id="Oval-3" fill="#4E4E4E" cx="83.2593761" cy="169.817982" rx="5" ry="5"></ellipse>
                        <circle id="Oval-3-Copy" fill="#4E4E4E" cx="130.174312" cy="169.817982" r="5"></circle>
                        <path d="M107.059062,196.260404 C112.530581,196.260404 116.966124,192.103257 116.966124,186.975156 C116.966124,181.847055 112.530581,186.975156 107.059062,186.975156 C101.587543,186.975156 97.152,181.847055 97.152,186.975156 C97.152,192.103257 101.587543,196.260404 107.059062,196.260404 Z" id="Oval-4" fill="#CF4F4B"></path>
                        <path d="M61.9487192,110.060645 C71.8392433,110.060645 80.2081483,105.303078 80.2081483,101.311335 C80.2081483,97.3195915 68.7960051,103.213359 61.9487192,103.213359 C55.1014333,103.213359 43.6892901,97.3195915 43.6892901,101.311335 C43.6892901,105.303078 52.0581951,110.060645 61.9487192,110.060645 Z" id="Oval-5-Copy-3" fill="#09B048" transform="translate(61.948719, 104.992499) rotate(17.000000) translate(-61.948719, -104.992499) "></path>
                        <path d="M145.626305,119.412455 C154.296103,119.412455 161.632086,115.242086 161.632086,111.743018 C161.632086,108.243951 151.628473,113.410287 145.626305,113.410287 C139.624137,113.410287 129.620523,108.243951 129.620523,111.743018 C129.620523,115.242086 136.956506,119.412455 145.626305,119.412455 Z" id="Oval-5-Copy-4" fill="#09B048" transform="translate(145.626305, 114.969839) rotate(-15.000000) translate(-145.626305, -114.969839) "></path>
                        <path d="M70.3669286,65.6557579 C79.0367268,65.6557579 86.37271,61.4853883 86.37271,57.986321 C86.37271,54.4872537 76.3690966,59.6535899 70.3669286,59.6535899 C64.3647605,59.6535899 54.3611472,54.4872537 54.3611472,57.986321 C54.3611472,61.4853883 61.6971303,65.6557579 70.3669286,65.6557579 Z" id="Oval-5-Copy-6" fill="#09B048" transform="translate(70.366929, 61.213142) rotate(-35.000000) translate(-70.366929, -61.213142) "></path>
                        <path d="M131.842572,73.865898 C139.407816,73.865898 145.809177,70.2268439 145.809177,67.1735666 C145.809177,64.1202892 137.080049,68.6284212 131.842572,68.6284212 C126.605095,68.6284212 117.875967,64.1202892 117.875967,67.1735666 C117.875967,70.2268439 124.277328,73.865898 131.842572,73.865898 Z" id="Oval-5-Copy-5" fill="#09B048" transform="translate(131.842572, 69.989282) rotate(36.000000) translate(-131.842572, -69.989282) "></path>
                    </g>
                </g>
            </g>
            <g id="Group-5-Copy" transform="translate(470.788796, 330.979443) rotate(24.000000) translate(-470.788796, -330.979443) translate(399.288796, 231.479443)">
                <g id="Group-3-Copy-4" transform="translate(0.000000, 0.000000)">
                    <g id="Group-4" transform="translate(33.000000, 65.000000)">
                        <path d="M0.194288924,15.9177302 C-0.589637381,7.12661054 5.92968375,1.42108547e-13 14.7792118,1.42108547e-13 L62.2113412,1.42108547e-13 C71.050298,1.42108547e-13 77.5405133,7.13275465 76.8129572,15.9376456 C76.8129572,15.9376456 74.6372727,34.0151568 74.6372727,67.3443988 C74.6372727,100.673641 68.4323954,118.496109 68.4323954,118.496109 C66.2560087,127.058671 57.3280606,134 48.4961431,134 L26.7502259,134 C17.9161245,134 9.18920831,127.002548 7.49745564,118.343598 C7.49745564,118.343598 2.35328026,100.210789 2.35328026,66.8066662 C2.35328026,33.4025436 0.194288924,15.9177302 0.194288924,15.9177302 Z" id="Rectangle" fill="#81C267"></path>
                        <path d="M3.78214189,15.934904 C3.06556569,7.13429951 9.64721026,-2.27373675e-13 18.4924194,-2.27373675e-13 L57.6089897,-2.27373675e-13 C66.4498279,-2.27373675e-13 72.9989513,7.13651878 72.3342611,15.9571078 C72.3342611,15.9571078 70.4125956,33.2536235 70.4125956,65.8366884 C70.4125956,98.4197533 64.9414024,115.425613 64.9414024,115.425613 C62.9458588,124.02711 54.1635826,131 45.322717,131 L29.216933,131 C20.3773758,131 11.7743938,123.974331 10.2275298,115.288694 C10.2275298,115.288694 5.68881352,97.9672637 5.68881352,65.3109946 C5.68881352,32.6547255 3.78214189,15.934904 3.78214189,15.934904 Z" id="Rectangle" fill="#92DC75"></path>
                    </g>
                    <path d="M44.681419,40.019828 C41.7626766,39.317591 38.6963785,38.9433594 35.5335673,38.9433594 C15.90892,38.9433594 1.42108547e-13,53.3511579 1.42108547e-13,71.1240779 C1.42108547e-13,88.896998 15.90892,103.304796 35.5335673,103.304796 C42.3721388,103.304796 48.7595085,101.555253 54.1797257,98.5234334 C59.2847058,101.569733 65.1618492,103.304796 71.4164216,103.304796 C77.540136,103.304796 83.3020492,101.641576 88.3316882,98.7129116 C93.6775555,101.628029 99.9399505,103.304796 106.634779,103.304796 C126.259426,103.304796 142.168346,88.896998 142.168346,71.1240779 C142.168346,53.3511579 126.259426,38.9433594 106.634779,38.9433594 C103.672895,38.9433594 100.795652,39.2715528 98.0449689,39.8899754 C91.5344778,31.9845751 82.0175982,27 71.4164216,27 C60.7573175,27 51.1943925,32.0391979 44.681419,40.019828 Z" id="Combined-Shape-Copy" fill="#09B048"></path>
                    <path d="M44.681419,32.019828 C41.7626766,31.317591 38.6963785,30.9433594 35.5335673,30.9433594 C15.90892,30.9433594 -7.10542736e-14,45.3511579 -7.10542736e-14,63.1240779 C-7.10542736e-14,80.896998 15.90892,95.3047965 35.5335673,95.3047965 C42.3721388,95.3047965 48.7595085,93.5552532 54.1797257,90.5234334 C59.2847058,93.5697334 65.1618492,95.3047965 71.4164216,95.3047965 C77.540136,95.3047965 83.3020492,93.6415758 88.3316882,90.7129116 C93.6775555,93.6280293 99.9399505,95.3047965 106.634779,95.3047965 C126.259426,95.3047965 142.168346,80.896998 142.168346,63.1240779 C142.168346,45.3511579 126.259426,30.9433594 106.634779,30.9433594 C103.672895,30.9433594 100.795652,31.2715528 98.0449689,31.8899754 C91.5344778,23.9845751 82.0175982,19 71.4164216,19 C60.7573175,19 51.1943925,24.0391979 44.681419,32.019828 Z" id="Combined-Shape" fill="#00C349"></path>
                    <path d="M44.681419,13.019828 C41.7626766,12.317591 38.6963785,11.9433594 35.5335673,11.9433594 C15.90892,11.9433594 -7.10542736e-14,26.3511579 -7.10542736e-14,44.1240779 C-7.10542736e-14,61.896998 15.90892,76.3047965 35.5335673,76.3047965 C42.3721388,76.3047965 48.7595085,74.5552532 54.1797257,71.5234334 C59.2847058,74.5697334 65.1618492,76.3047965 71.4164216,76.3047965 C77.540136,76.3047965 83.3020492,74.6415758 88.3316882,71.7129116 C93.6775555,74.6280293 99.9399505,76.3047965 106.634779,76.3047965 C126.259426,76.3047965 142.168346,61.896998 142.168346,44.1240779 C142.168346,26.3511579 126.259426,11.9433594 106.634779,11.9433594 C103.672895,11.9433594 100.795652,12.2715528 98.0449689,12.8899754 C91.5344778,4.98457513 82.0175982,1.13242749e-13 71.4164216,1.13242749e-13 C60.7573175,1.13242749e-13 51.1943925,5.03919793 44.681419,13.019828 Z" id="Combined-Shape-Copy-2" fill="#00C349"></path>
                    <path d="M37.4343533,68.9943913 C45.1672192,68.9943913 51.7104134,65.2771313 51.7104134,62.1582368 C51.7104134,59.0393423 42.7878758,63.6443573 37.4343533,63.6443573 C32.0808307,63.6443573 23.1582932,59.0393423 23.1582932,62.1582368 C23.1582932,65.2771313 29.7014874,68.9943913 37.4343533,68.9943913 Z" id="Oval-5-Copy-3" fill="#09B048" transform="translate(37.434353, 65.034464) rotate(17.000000) translate(-37.434353, -65.034464) "></path>
                    <path d="M102.857332,76.3013015 C109.635778,76.3013015 115.371387,73.0428398 115.371387,70.3088911 C115.371387,67.5749423 107.550103,71.611589 102.857332,71.611589 C98.1645615,71.611589 90.3432772,67.5749423 90.3432772,70.3088911 C90.3432772,73.0428398 96.0788857,76.3013015 102.857332,76.3013015 Z" id="Oval-5-Copy-4" fill="#09B048" transform="translate(102.857332, 72.830124) rotate(-15.000000) translate(-102.857332, -72.830124) "></path>
                    <path d="M44.0160959,34.2992356 C50.7945423,34.2992356 56.5301508,31.0407739 56.5301508,28.3068251 C56.5301508,25.5728763 48.7088665,29.609523 44.0160959,29.609523 C39.3233254,29.609523 31.5020411,25.5728763 31.5020411,28.3068251 C31.5020411,31.0407739 37.2376496,34.2992356 44.0160959,34.2992356 Z" id="Oval-5-Copy-6" fill="#09B048" transform="translate(44.016096, 30.828058) rotate(-35.000000) translate(-44.016096, -30.828058) "></path>
                    <path d="M92.0805771,40.7141171 C97.9954324,40.7141171 103.00031,37.8707916 103.00031,35.4851548 C103.00031,33.0995179 96.1754769,36.6218857 92.0805771,36.6218857 C87.9856772,36.6218857 81.1608441,33.0995179 81.1608441,35.4851548 C81.1608441,37.8707916 86.1657217,40.7141171 92.0805771,40.7141171 Z" id="Oval-5-Copy-5" fill="#09B048" transform="translate(92.080577, 37.685176) rotate(36.000000) translate(-92.080577, -37.685176) "></path>
                </g>
                <ellipse id="Oval-2" fill="#FFFFFF" cx="57.5" cy="126.5" rx="8.5" ry="4.5"></ellipse>
                <ellipse id="Oval-2-Copy-3" fill="#FFFFFF" cx="86.5" cy="126.5" rx="8.5" ry="4.5"></ellipse>
                <circle id="Oval-7" fill="#4E4E4E" cx="57.5" cy="126.5" r="4.5"></circle>
                <circle id="Oval-7-Copy" fill="#4E4E4E" cx="86.5" cy="126.5" r="4.5"></circle>
            </g>
            <g id="Group-5-Copy-2" transform="translate(169.000000, 279.000000)">
                <g id="Group-3-Copy-4" transform="translate(0.000000, 0.000000)">
                    <g id="Group-4" transform="translate(33.000000, 62.000000)">
                        <path d="M1.03605531,18.8397817 C-0.212765734,10.0917118 5.92968375,3 14.7792118,3 L62.2113412,3 C71.050298,3 77.0883668,10.0667642 75.977377,18.8415409 C75.977377,18.8415409 74.6372727,22.2921785 74.6372727,41.1953307 C74.6372727,60.0984828 70.5764368,64.2201207 70.5764368,64.2201207 C67.2159288,72.3828226 57.3280606,79 48.4961431,79 L26.7502259,79 C17.9161245,79 8.2225831,72.3085081 5.66167208,63.8501379 C5.66167208,63.8501379 2.35328026,59.8359698 2.35328026,40.890348 C2.35328026,21.9447262 1.03605531,18.8397817 1.03605531,18.8397817 Z" id="Rectangle" fill="#81C267"></path>
                        <path d="M4.54787137,15.8699791 C3.40839445,7.10523167 9.64721026,1.42108547e-14 18.4924194,1.42108547e-14 L57.6089897,1.42108547e-14 C66.4498279,1.42108547e-14 72.583084,7.09352053 71.5738967,15.8737783 C71.5738967,15.8737783 70.4125956,18.8602641 70.4125956,37.3402113 C70.4125956,55.8201586 66.9262931,59.3407201 66.9262931,59.3407201 C63.8345246,67.601678 54.1635826,74.2985075 45.322717,74.2985075 L29.216933,74.2985075 C20.3773758,74.2985075 10.8725106,67.5268266 8.53818067,59.0170938 C8.53818067,59.0170938 5.68881352,55.5635227 5.68881352,37.0420566 C5.68881352,18.5205906 4.54787137,15.8699791 4.54787137,15.8699791 Z" id="Rectangle" fill="#92DC75"></path>
                    </g>
                    <path d="M44.681419,40.019828 C41.7626766,39.317591 38.6963785,38.9433594 35.5335673,38.9433594 C15.90892,38.9433594 -2.84217094e-14,53.3511579 -2.84217094e-14,71.1240779 C-2.84217094e-14,88.896998 15.90892,103.304796 35.5335673,103.304796 C42.3721388,103.304796 48.7595085,101.555253 54.1797257,98.5234334 C59.2847058,101.569733 65.1618492,103.304796 71.4164216,103.304796 C77.540136,103.304796 83.3020492,101.641576 88.3316882,98.7129116 C93.6775555,101.628029 99.9399505,103.304796 106.634779,103.304796 C126.259426,103.304796 142.168346,88.896998 142.168346,71.1240779 C142.168346,53.3511579 126.259426,38.9433594 106.634779,38.9433594 C103.672895,38.9433594 100.795652,39.2715528 98.0449689,39.8899754 C91.5344778,31.9845751 82.0175982,27 71.4164216,27 C60.7573175,27 51.1943925,32.0391979 44.681419,40.019828 Z" id="Combined-Shape-Copy" fill="#09B048"></path>
                    <path d="M44.681419,32.019828 C41.7626766,31.317591 38.6963785,30.9433594 35.5335673,30.9433594 C15.90892,30.9433594 4.26325641e-14,45.3511579 4.26325641e-14,63.1240779 C4.26325641e-14,80.896998 15.90892,95.3047965 35.5335673,95.3047965 C42.3721388,95.3047965 48.7595085,93.5552532 54.1797257,90.5234334 C59.2847058,93.5697334 65.1618492,95.3047965 71.4164216,95.3047965 C77.540136,95.3047965 83.3020492,93.6415758 88.3316882,90.7129116 C93.6775555,93.6280293 99.9399505,95.3047965 106.634779,95.3047965 C126.259426,95.3047965 142.168346,80.896998 142.168346,63.1240779 C142.168346,45.3511579 126.259426,30.9433594 106.634779,30.9433594 C103.672895,30.9433594 100.795652,31.2715528 98.0449689,31.8899754 C91.5344778,23.9845751 82.0175982,19 71.4164216,19 C60.7573175,19 51.1943925,24.0391979 44.681419,32.019828 Z" id="Combined-Shape" fill="#00C349"></path>
                    <path d="M44.681419,13.019828 C41.7626766,12.317591 38.6963785,11.9433594 35.5335673,11.9433594 C15.90892,11.9433594 9.9475983e-14,26.3511579 9.9475983e-14,44.1240779 C9.9475983e-14,61.896998 15.90892,76.3047965 35.5335673,76.3047965 C42.3721388,76.3047965 48.7595085,74.5552532 54.1797257,71.5234334 C59.2847058,74.5697334 65.1618492,76.3047965 71.4164216,76.3047965 C77.540136,76.3047965 83.3020492,74.6415758 88.3316882,71.7129116 C93.6775555,74.6280293 99.9399505,76.3047965 106.634779,76.3047965 C126.259426,76.3047965 142.168346,61.896998 142.168346,44.1240779 C142.168346,26.3511579 126.259426,11.9433594 106.634779,11.9433594 C103.672895,11.9433594 100.795652,12.2715528 98.0449689,12.8899754 C91.5344778,4.98457513 82.0175982,-2.84217094e-14 71.4164216,-2.84217094e-14 C60.7573175,-2.84217094e-14 51.1943925,5.03919793 44.681419,13.019828 Z" id="Combined-Shape-Copy-2" fill="#00C349"></path>
                    <path d="M37.4343533,68.9943913 C45.1672192,68.9943913 51.7104134,65.2771313 51.7104134,62.1582368 C51.7104134,59.0393423 42.7878758,63.6443573 37.4343533,63.6443573 C32.0808307,63.6443573 23.1582932,59.0393423 23.1582932,62.1582368 C23.1582932,65.2771313 29.7014874,68.9943913 37.4343533,68.9943913 Z" id="Oval-5-Copy-3" fill="#09B048" transform="translate(37.434353, 65.034464) rotate(17.000000) translate(-37.434353, -65.034464) "></path>
                    <path d="M102.857332,76.3013015 C109.635778,76.3013015 115.371387,73.0428398 115.371387,70.3088911 C115.371387,67.5749423 107.550103,71.611589 102.857332,71.611589 C98.1645615,71.611589 90.3432772,67.5749423 90.3432772,70.3088911 C90.3432772,73.0428398 96.0788857,76.3013015 102.857332,76.3013015 Z" id="Oval-5-Copy-4" fill="#09B048" transform="translate(102.857332, 72.830124) rotate(-15.000000) translate(-102.857332, -72.830124) "></path>
                    <path d="M44.0160959,34.2992356 C50.7945423,34.2992356 56.5301508,31.0407739 56.5301508,28.3068251 C56.5301508,25.5728763 48.7088665,29.609523 44.0160959,29.609523 C39.3233254,29.609523 31.5020411,25.5728763 31.5020411,28.3068251 C31.5020411,31.0407739 37.2376496,34.2992356 44.0160959,34.2992356 Z" id="Oval-5-Copy-6" fill="#09B048" transform="translate(44.016096, 30.828058) rotate(-35.000000) translate(-44.016096, -30.828058) "></path>
                    <path d="M92.0805771,40.7141171 C97.9954324,40.7141171 103.00031,37.8707916 103.00031,35.4851548 C103.00031,33.0995179 96.1754769,36.6218857 92.0805771,36.6218857 C87.9856772,36.6218857 81.1608441,33.0995179 81.1608441,35.4851548 C81.1608441,37.8707916 86.1657217,40.7141171 92.0805771,40.7141171 Z" id="Oval-5-Copy-5" fill="#09B048" transform="translate(92.080577, 37.685176) rotate(36.000000) translate(-92.080577, -37.685176) "></path>
                </g>
            </g>
        </g>
    </g>
</svg>