<?xml version="1.0" encoding="UTF-8" standalone="no"?>
<svg width="6152px" height="3318px" viewBox="0 0 6152 3318" version="1.1" xmlns="http://www.w3.org/2000/svg" xmlns:xlink="http://www.w3.org/1999/xlink" style="background: #FFFFFF;">
    <!-- Generator: Sketch 42 (36781) - http://www.bohemiancoding.com/sketch -->
    <title>Artboard 108</title>
    <desc>Created with Sketch.</desc>
    <defs>
        <path d="M136.722593,225.256098 C136.722593,203.38994 164.341895,144.617141 164.341895,144.617141 C166.174482,140.603687 171.245313,137.290142 175.66877,137.216115 L495.372238,131.865872 C499.795311,131.791851 504.96733,134.947095 506.903361,138.917379 C506.903361,138.917379 522.18277,169.417661 535.707611,203.228844 C549.232452,237.040026 543.278526,439.538647 543.278526,439.538647 C542.749555,463.829959 530.438131,499.2274 514.943573,517.951776 C514.943573,517.951776 442.064941,626.457177 343,626.45718 C243.935059,626.457184 170.207742,522.762277 170.207742,522.762277 C154.567493,504.183532 141.470735,469.432586 140.958655,445.12759 C140.958655,445.12759 136.722593,247.122255 136.722593,225.256098 Z" id="path-1"></path>
        <mask id="mask-2" maskContentUnits="userSpaceOnUse" maskUnits="objectBoundingBox" x="0" y="0" width="407.861159" height="494.592585" fill="white">
            <use xlink:href="#path-1"></use>
        </mask>
        <path d="M166,148.391502 C166,126.525345 193.619302,67.7525455 193.619302,67.7525455 C195.451889,63.739092 200.522721,60.4255463 204.946178,60.3515196 L524.649645,55.0012762 C529.072718,54.9272559 534.244737,58.0824999 536.180768,62.0527837 C536.180768,62.0527837 551.460177,92.5530661 564.985018,126.364248 C578.50986,160.175431 567.180789,402.32532 567.180789,402.32532 C565.968097,432.674923 547.455783,474.555655 523.730872,493.487568 C523.730872,493.487568 490.307615,544.597204 371.879517,544.597198 C253.451418,544.597193 209.155813,491.256725 209.155813,491.256725 C185.321516,472.490869 166,432.648819 166,402.268559 L166,148.391502 Z" id="path-3"></path>
        <mask id="mask-4" maskContentUnits="userSpaceOnUse" maskUnits="objectBoundingBox" x="0" y="0" width="405.623357" height="489.597198" fill="white">
            <use xlink:href="#path-3"></use>
        </mask>
        <path d="M124.722593,192.256098 C124.722593,170.38994 152.341895,111.617141 152.341895,111.617141 C154.174482,107.603687 159.245313,104.290142 163.66877,104.216115 L483.372238,98.8658715 C487.795311,98.7918513 492.96733,101.947095 494.903361,105.917379 C494.903361,105.917379 510.18277,136.417661 523.707611,170.228844 C537.232452,204.040026 510.853138,412.424818 510.853138,412.424818 C508.013397,436.558364 495.421032,472.928033 481.584434,492.880525 C481.584434,492.880525 430.064941,593.457177 331,593.45718 C231.935059,593.457184 181.531924,503.397493 181.531924,503.397493 C167.243303,483.760777 153.288636,448.28676 150.381283,424.154511 C150.381283,424.154511 124.722593,214.122255 124.722593,192.256098 Z" id="path-5"></path>
        <mask id="mask-6" maskContentUnits="userSpaceOnUse" maskUnits="objectBoundingBox" x="0" y="0" width="402.842992" height="494.592585" fill="white">
            <use xlink:href="#path-5"></use>
        </mask>
        <path d="M126.660087,113.779344 C126.660087,91.913187 126.660088,14.3512035 126.660088,14.3512035 C126.660088,9.93233839 130.245313,6.29014163 134.66877,6.21611499 L454.372238,0.86587151 C458.795311,0.791851294 463.96733,3.9470953 465.903361,7.91737902 C465.903361,7.91737902 481.18277,38.4176615 494.707611,72.2288438 C508.232452,106.040026 480.824856,325.657973 453.447555,377.920443 C439.604049,404.347292 373.817095,495.457175 302,495.45718 C230.182905,495.457186 153.734573,414.599101 141.754261,362.364229 C96.5973944,165.477602 126.660087,135.645502 126.660087,113.779344 Z" id="path-7"></path>
        <mask id="mask-8" maskContentUnits="userSpaceOnUse" maskUnits="objectBoundingBox" x="0" y="0" width="381.41618" height="494.592585" fill="white">
            <use xlink:href="#path-7"></use>
        </mask>
        <path d="M162.267436,980.972938 C162.267436,980.972938 189.968845,1017.67553 220.85834,1023.72147 C251.747835,1029.7674 257.669955,1021.83498 266.12199,1021.83498" id="path-9"></path>
        <path d="M334.567409,981.402632 C334.567409,981.402632 362.268817,1018.10523 393.158313,1024.15116 C424.047808,1030.19709 429.969928,1022.26467 438.421962,1022.26467" id="path-10"></path>
        <path d="M125.660087,113.779344 C125.660087,91.913187 125.660088,14.3512035 125.660088,14.3512035 C125.660088,9.93233839 129.245313,6.29014163 133.66877,6.21611499 L453.372238,0.86587151 C457.795311,0.791851294 462.96733,3.9470953 464.903361,7.91737902 C464.903361,7.91737902 480.18277,38.4176615 493.707611,72.2288438 C507.232452,106.040026 486.824856,328.657973 459.447555,380.920443 C445.604049,407.347292 372.817095,495.457175 301,495.45718 C229.182905,495.457186 142.734573,414.599101 130.754261,362.364229 C85.5973944,165.477602 125.660087,135.645502 125.660087,113.779344 Z" id="path-11"></path>
        <mask id="mask-12" maskContentUnits="userSpaceOnUse" maskUnits="objectBoundingBox" x="0" y="0" width="388.721368" height="494.592585" fill="white">
            <use xlink:href="#path-11"></use>
        </mask>
    </defs>
    <g id="Page-1" stroke="none" stroke-width="1" fill="none" fill-rule="evenodd">
        <g id="Artboard-108" stroke="#979797">
            <g id="Group-3" transform="translate(577.000000, 415.000000)">
                <g id="Group">
                    <path d="M170.826493,350.656549 C170.826493,350.656549 171.237686,320 131.763378,320 C92.2890707,320 100.824395,408.281392 108.537335,424.118464 C116.250276,439.955536 117.03943,458.974133 130.982531,458.974142 C144.925632,458.974152 172.12652,443.224293 172.12652,443.224293" id="Path-2631" stroke-width="25" fill="#FFFFFF"></path>
                    <path d="M579.346985,361.656549 C579.346985,361.656549 579.758178,331 540.28387,331 C500.809563,331 509.344886,419.281392 517.057827,435.118464 C524.770768,450.955536 525.559922,469.974133 539.503023,469.974142 C553.446124,469.974152 580.647012,454.224293 580.647012,454.224293" id="Path-2631-Copy" stroke-width="25" fill="#FFFFFF" transform="translate(545.583752, 400.487071) scale(-1, 1) translate(-545.583752, -400.487071) "></path>
                    <use id="Rectangle-979-Copy" mask="url(#mask-2)" stroke-width="50" fill="#FFFFFF" xlink:href="#path-1"></use>
                    <path d="M178.890445,197.255543 C178.890445,197.255543 247.109195,259.194649 310.711562,292.674534 C313.523426,294.154681 373.517868,314.139318 380.872085,317.940266 C395.976023,325.746574 313.015511,222.540815 325.436874,226.208775 C339.628144,230.399377 409.045731,323.586406 414.551735,317.940259 C428.540092,294.894482 382.589797,200.852073 382.589797,200.852073 C381.641128,198.865767 381.243703,199.016315 381.733836,201.162914 C381.733836,201.162914 391.222297,250.672223 422.664528,286.166333 C454.106758,321.660443 475.596984,317.998743 475.596984,317.998743 C477.793942,317.966443 478.904991,316.288649 478.073758,314.239395 L436.15056,210.885315 C435.321487,208.841384 435.460946,208.783577 436.468689,210.751448 C436.468689,210.751448 512.527839,362.046353 524.378609,317.940259 C527.171943,314.408429 517.747395,218.50756 517.747395,218.50756 C516.349974,203.668472 511.470021,180.142506 506.607077,166.047105 C506.607077,166.047105 500.046548,143.268444 491.678354,131.538851 C486.726444,124.59782 483.82694,115.137694 471.808084,89.0434437 C466.734354,78.0278213 448.311717,55.6942883 445.775766,47.4254628 C445.775766,-3.15580964 396.953435,49.2065906 388.735758,47.4254623 C381.170062,45.7856466 412.935727,8.94255352 404.970255,8.94255352 C391.295207,8.94255353 345.644493,32.27505 332.400812,36.9977999 C322.9379,40.3723126 375.230712,-4.43596371 366.157923,0.377958325 C353.578319,7.05255727 267.623201,45.9080065 236.172312,66.1345063 C184.521587,99.3517976 182.163242,118.664955 170.326461,131.538853 C146.04627,157.946428 140.164023,203.824966 140.164023,203.824966 C138.66932,211.96548 143.808532,216.381671 151.636131,213.691088 L192.237838,199.73505" id="Path-2627" stroke-width="25" fill="#D8D8D8" transform="translate(332.400816, 163.007828) scale(-1, 1) translate(-332.400816, -163.007828) "></path>
                    <polyline id="Path-2628" stroke-width="25" transform="translate(507.040057, 251.985723) scale(-1, 1) translate(-507.040057, -251.985723) " points="535.756672 199.861258 516.064122 304.110189 478.323441 296.477343"></polyline>
                    <ellipse id="Oval-1831" fill="#979797" cx="247.45093" cy="363" rx="17.4509303" ry="16"></ellipse>
                    <ellipse id="Oval-1831-Copy" fill="#979797" cx="434.45093" cy="363" rx="17.4509303" ry="16"></ellipse>
                    <path d="M331.104699,379.841689 C331.104699,379.841689 334.233435,404.20802 316.796168,424.504576 C299.358901,444.801131 300.432645,457.678009 300.432645,457.678009 C300.432645,457.678009 302.535895,471.982518 312.907368,471.982519 C323.278841,471.98252 328.653767,463.96948 328.653767,463.96948" id="Path-2629" stroke-width="25"></path>
                    <path d="M309.029492,529.542512 C309.029492,529.542512 319.096272,549.935446 337.109717,549.935447 C355.123162,549.935447 366.821377,527.952427 366.821377,527.952427" id="Path-2630" stroke-width="25"></path>
                    <path d="M292.790457,601.481991 C292.790457,601.481991 295.470703,683.213876 264.267208,701.422869" id="Path-2633" stroke-width="25"></path>
                    <path d="M416.942393,601 C416.942393,601 419.622639,682.731884 388.419143,700.940878" id="Path-2633-Copy" stroke-width="25" transform="translate(402.709572, 650.970439) scale(-1, 1) translate(-402.709572, -650.970439) "></path>
                    <path d="M264.40444,690.972158 C264.40444,690.972158 253.518886,782.446288 337.087678,782.446288 C420.65647,782.446288 420.656472,688.491309 420.656472,688.491309" id="Path-2635" stroke-width="25"></path>
                    <path d="M434.404274,700.347729 C434.404274,700.347729 544.322322,695.591592 591.120961,713.05994 C648.65064,756.651411 661.487055,1096.23824 666.497614,1143.98476 C666.718885,1146.0933 566.961725,1143.98476 566.961725,1143.98476 L522.763746,816.12986 L549.140942,1441.05901 C549.187522,1442.16258 548.366118,1443.30434 547.306035,1443.60928 L392.632764,1488.10154 C388.9144,1489.17114 385.773162,1486.91437 385.616242,1483.04805 C385.616242,1483.04805 358.780646,823.160779 359.381665,788.96545 C359.982684,754.770121 412.10908,852.512907 412.10908,852.512907 C412.630412,853.480633 413.175754,853.380479 413.326886,852.290995 L434.404274,700.347729 Z" id="Path-2636" stroke-width="25"></path>
                    <path d="M95.1211528,701.486879 C95.1211528,701.486879 194.001166,696.983121 251.83784,714.199091 C310.079906,750.386921 316.10269,1120.06017 316.102698,1132.74771 C316.102707,1145.43524 219.678962,1146.15209 219.678962,1146.15209 L183.480626,817.269011 L209.857822,1442.19816 C209.904402,1443.30173 209.073171,1444.40918 207.990334,1444.67439 L28.8449716,1488.55056 C25.0903717,1489.47013 22.0438757,1487.08313 22.0404816,1483.22046 C22.0404816,1483.22046 21.445648,825.50525 22.046667,791.309921 C22.647686,757.114592 67.4127723,849.833802 67.4127723,849.833802 C67.8939376,850.819396 68.4416037,850.736712 68.63561,849.651408 L95.1211528,701.486879 Z" id="Path-2636-Copy" stroke-width="25" transform="translate(168.940316, 1094.851546) scale(-1, 1) translate(-168.940316, -1094.851546) "></path>
                    <path d="M656.896681,1138.92322 C656.896681,1138.92322 696.598837,1153.67672 675.672972,1172.0877 C654.747107,1190.49868 565.693436,1199 556.511536,1181.20348 C547.329636,1163.40697 565.693436,1145.37237 565.693436,1145.37237" id="Path-2637" stroke-width="25"></path>
                    <path d="M104.956078,1135 C104.956078,1135 144.658234,1149.7535 123.732368,1168.16448 C102.806503,1186.57546 13.7528323,1195.07678 4.57093208,1177.28026 C-4.61096812,1159.48375 13.7528321,1141.44915 13.7528321,1141.44915" id="Path-2637-Copy" stroke-width="25" transform="translate(65.911989, 1161.038244) scale(-1, 1) translate(-65.911989, -1161.038244) "></path>
                    <path d="M669.989592,1169.41749 C669.989592,1169.41749 701.96324,1189.60444 681.037375,1208.01542 C660.11151,1226.4264 563.693436,1232 554.511536,1214.20348 C545.329636,1196.40697 563.693436,1178.37237 563.693436,1178.37237" id="Path-2637" stroke-width="25"></path>
                    <path d="M118.048988,1168 C118.048988,1168 150.022636,1188.18694 129.096771,1206.59793 C108.170906,1225.00891 11.7528323,1230.58251 2.57093208,1212.78599 C-6.61096812,1194.98947 11.7528321,1176.95488 11.7528321,1176.95488" id="Path-2637-Copy-2" stroke-width="25" transform="translate(68.099895, 1195.811254) scale(-1, 1) translate(-68.099895, -1195.811254) "></path>
                    <path d="M651.010356,1210.41204 C651.010356,1210.41204 643.746029,1421.54307 643.746029,1430.71909 C643.746029,1439.89512 672.362043,1463.74681 672.362043,1491.61253 C672.362043,1519.47825 675.720371,1558.80853 651.010357,1557.3681 C626.300344,1555.92766 639.469708,1508.01917 639.469708,1500.18093 C639.469708,1492.34269 622.706772,1469.86514 622.706772,1469.86514 C622.706772,1469.86514 618.23483,1464.85513 618.234829,1469.86514 C618.234829,1474.87514 625.078812,1495.74966 625.078812,1495.74966 C625.078812,1495.74966 633.467762,1506.35332 624.823804,1512.6162 C606.468468,1524.70912 597.043469,1512.64453 588.192915,1495.74967 C579.342361,1478.85481 591.653555,1426.42968 591.653555,1426.42968 L582.646784,1216.39758" id="Path-2639" stroke-width="25"></path>
                    <path d="M78.3635712,1210 C78.3635712,1210 71.0992446,1421.13102 71.0992446,1430.30705 C71.0992446,1439.48308 99.7152585,1463.33477 99.7152588,1491.20049 C99.7152591,1519.06621 103.073586,1558.39648 78.3635728,1556.95605 C53.6535594,1555.51562 66.8229235,1507.60713 66.8229234,1499.76889 C66.8229234,1491.93065 50.0599878,1469.45309 50.0599878,1469.45309 C50.0599878,1469.45309 45.5880451,1464.44309 45.5880449,1469.45309 C45.5880446,1474.4631 52.4320272,1495.33762 52.4320272,1495.33762 C52.4320272,1495.33762 60.8209779,1505.94127 52.17702,1512.20416 C33.8216836,1524.29708 24.3966848,1512.23249 15.5461308,1495.33763 C6.6955767,1478.44276 19.0067708,1426.01764 19.0067708,1426.01764 L10,1215.98553" id="Path-2639-Copy" stroke-width="25" transform="translate(54.934331, 1383.497257) scale(-1, 1) translate(-54.934331, -1383.497257) "></path>
                    <path d="M324.824156,1408.70673 L375.440484,1412.15725" id="Path-2644" stroke-width="25"></path>
                    <path d="M158.67857,1442.00854 L150.405867,2348.95895 L272.914551,2360.86432 C272.914551,2360.86432 309.539853,1582.03656 341.560759,1582.81978 C373.581665,1583.60299 405.191191,2364 405.191191,2364 L525.273634,2364 L513.505385,1456.07169" id="Path-2645" stroke-width="25"></path>
                    <path d="M151.061071,2354.30489 C151.061071,2354.30489 145.350329,2388.02982 142.478327,2395.62865 C139.606325,2403.22749 111.230952,2423.96262 116.3705,2443.20561 C123.025357,2468.12207 187.624739,2464.32196 214.882957,2466.23228 C235.376084,2467.66849 239.626237,2457.79099 250.803672,2446.17666 C276.84838,2419.11395 268.635455,2354.30489 268.635455,2354.30489" id="Path-2646" stroke-width="25"></path>
                    <path d="M441.31142,2363 C441.31142,2363 435.600677,2396.72493 432.728675,2404.32376 C429.856673,2411.9226 401.4813,2432.65773 406.620848,2451.90072 C413.275705,2476.81717 477.875088,2473.01707 505.133306,2474.92739 C525.626433,2476.36359 529.876586,2466.4861 541.05402,2454.87177 C567.098729,2427.80906 558.885804,2363 558.885804,2363" id="Path-2646-Copy" stroke-width="25" transform="translate(483.057155, 2419.033340) scale(-1, 1) translate(-483.057155, -2419.033340) "></path>
                    <path d="M116.850699,2438.99419 C116.850699,2438.99419 108.143311,2482.72516 116.850699,2494.06734 C125.558086,2505.40952 206.852728,2520.37813 241.894964,2507.22274 C276.9372,2494.06734 271.568375,2369.91555 271.568375,2369.91555" id="Path-2647" stroke-width="25"></path>
                    <path d="M409.86995,2446.07864 C409.86995,2446.07864 401.162563,2489.80961 409.86995,2501.15179 C418.577337,2512.49397 499.871979,2527.46259 534.914215,2514.30719 C569.956451,2501.15179 564.587626,2377 564.587626,2377" id="Path-2647-Copy" stroke-width="25" transform="translate(485.441492, 2448.220185) scale(-1, 1) translate(-485.441492, -2448.220185) "></path>
                    <path d="M162,2404.81432 C162,2404.81432 212.41199,2386.47831 230.184286,2409.9619" id="Path-2648-Copy" stroke-width="10"></path>
                    <path d="M450,2412.81432 C450,2412.81432 500.41199,2394.47831 518.184286,2417.9619" id="Path-2648-Copy-4" stroke-width="10" transform="translate(484.092143, 2411.980948) scale(-1, 1) translate(-484.092143, -2411.980948) "></path>
                    <path d="M166,2389.81432 C166,2389.81432 216.41199,2371.47831 234.184286,2394.9619" id="Path-2648-Copy-3" stroke-width="10"></path>
                    <path d="M445,2397.81432 C445,2397.81432 495.41199,2379.47831 513.184286,2402.9619" id="Path-2648-Copy-5" stroke-width="10" transform="translate(479.092143, 2396.980948) scale(-1, 1) translate(-479.092143, -2396.980948) "></path>
                    <path d="M155,2418.81432 C155,2418.81432 205.41199,2400.47831 223.184286,2423.9619" id="Path-2648-Copy-2" stroke-width="10"></path>
                    <path d="M453,2427.81432 C453,2427.81432 503.41199,2409.47831 521.184286,2432.9619" id="Path-2648-Copy-6" stroke-width="10" transform="translate(487.092143, 2426.980948) scale(-1, 1) translate(-487.092143, -2426.980948) "></path>
                </g>
            </g>
            <g id="Group-2" transform="translate(1669.000000, 494.000000)">
                <path d="M200.826493,273.656549 C200.826493,273.656549 201.237686,243 161.763378,243 C122.289071,243 130.824395,331.281392 138.537335,347.118464 C146.250276,362.955536 147.03943,381.974133 160.982531,381.974142 C174.925632,381.974152 202.12652,366.224293 202.12652,366.224293" id="Path-2631-Copy-2" stroke-width="25" fill="#FFFFFF"></path>
                <path d="M608.826493,284.656549 C608.826493,284.656549 609.237686,254 569.763378,254 C530.289071,254 538.824395,342.281392 546.537335,358.118464 C554.250276,373.955536 555.03943,392.974133 568.982531,392.974142 C582.925632,392.974152 610.12652,377.224293 610.12652,377.224293" id="Path-2631-Copy-3" stroke-width="25" fill="#FFFFFF" transform="translate(575.063260, 323.487071) scale(-1, 1) translate(-575.063260, -323.487071) "></path>
                <use id="Rectangle-979-Copy-2" mask="url(#mask-4)" stroke-width="50" fill="#FFFFFF" xlink:href="#path-3"></use>
                <path d="M181.196518,156.9487 C181.196518,156.9487 170.984407,208.262166 185.122615,229.058228 C191.830672,238.92519 216.306035,240.171752 227.143711,229.058228 C231.959066,221.124944 256.478922,238.514883 286.969841,223.395187 C302.349481,215.768803 347.023897,239.673963 363.532623,229.058228 C379.580108,218.739087 418.168848,238.362409 427.689316,223.395187 C445.363723,195.609077 466.225444,224.359063 483.823105,223.395187 C501.420766,222.431312 494.982585,200.86441 518.558548,218.418015 C541.909777,235.804292 561.232738,253.897005 567.129745,231.94957 C569.92308,228.41774 563.949648,150.464582 563.949648,150.464582 C562.891871,135.589049 555.324238,113.484614 547.016637,101.097381 C547.016637,101.097381 534.760354,82.5929122 526.39216,70.8633194 C523.372908,66.6312709 507.577679,46.2235994 483.823099,32.4124365 C452.170592,14.0093355 410.489688,1.70866789 405.79516,0.691159454 C398.229464,-0.948656184 354.035637,3.34779539 340.791956,8.07054524 C331.329044,11.4450579 296.042632,3.2566232 286.969843,8.07054524 C211.354312,48.1913128 205.902923,66.089063 205.902923,66.089063 C200.975263,72.725587 195.748629,84.7062444 194.226715,92.8603621 L181.196518,162.673645" id="Path-2627-Copy" stroke-width="25" fill="#D8D8D8"></path>
                <ellipse id="Oval-1831-Copy-2" fill="#979797" cx="277.45093" cy="286" rx="17.4509303" ry="16"></ellipse>
                <ellipse id="Oval-1831-Copy-3" fill="#979797" cx="464.45093" cy="286" rx="17.4509303" ry="16"></ellipse>
                <path d="M360.684964,303 C360.684964,303 363.8137,327.366331 346.376433,347.662886 C328.939166,367.959442 330.01291,380.83632 330.01291,380.83632 C330.01291,380.83632 332.11616,395.140828 342.487633,395.14083 C352.859106,395.140831 358.234032,387.127791 358.234032,387.127791" id="Path-2629-Copy" stroke-width="25"></path>
                <path d="M339,452.590085 C339,452.590085 349.06678,472.983019 367.080225,472.98302 C385.09367,472.98302 396.791885,451 396.791885,451" id="Path-2630-Copy" stroke-width="25"></path>
                <path d="M281.061232,533.456284 C281.061232,533.456284 292.291166,622.533379 248.116541,625.741417" id="Path-2633-Copy-2" stroke-width="25"></path>
                <path d="M487.201555,538.370715 C487.201555,538.370715 494.610692,624.159976 448.013372,629.626787" id="Path-2633-Copy-3" stroke-width="25" transform="translate(467.823126, 583.998751) scale(-1, 1) translate(-467.823126, -583.998751) "></path>
                <path d="M254.321732,625.038323 C254.321732,625.038323 235.516021,738.821893 363.981705,738.821893 C492.447389,738.821893 492.447388,625.038323 492.447388,625.038323" id="Path-2635-Copy" stroke-width="25"></path>
                <path d="M682.902739,949.221073 C682.902739,949.221073 675.638412,1344.0455 675.638412,1353.22152 C675.638412,1362.39755 704.254426,1386.24924 704.254426,1414.11496 C704.254427,1441.98068 707.612754,1481.31095 682.90274,1479.87052 C658.192727,1478.43009 671.362091,1430.5216 671.362091,1422.68336 C671.362091,1414.84512 654.599155,1392.36756 654.599155,1392.36756 C654.599155,1392.36756 650.127213,1387.35756 650.127213,1392.36756 C650.127212,1397.37757 656.971195,1418.25209 656.971195,1418.25209 C656.971195,1418.25209 665.360146,1428.85574 656.716188,1435.11863 C638.360851,1447.21155 628.935852,1435.14696 620.085298,1418.2521 C611.234744,1401.35723 623.545938,1348.93211 623.545938,1348.93211 L593.312529,949.221073" id="Path-2639-Copy-2" stroke-width="25"></path>
                <path d="M94.2194457,923 C94.2194457,923 86.9551187,1317.82442 86.9551187,1327.00045 C86.9551187,1336.17647 115.571133,1360.02817 115.571133,1387.89389 C115.571133,1415.7596 118.92946,1455.08988 94.2194469,1453.64945 C69.5094335,1452.20902 82.6787976,1404.30053 82.6787975,1396.46229 C82.6787974,1388.62404 65.9158618,1366.14649 65.9158618,1366.14649 C65.9158618,1366.14649 61.4439192,1361.13648 61.4439189,1366.14649 C61.4439187,1371.1565 68.2879013,1392.03101 68.2879013,1392.03101 C68.2879013,1392.03101 76.676852,1402.63467 68.032894,1408.89755 C49.6775577,1420.99047 40.2525589,1408.92589 31.4020048,1392.03102 C22.5514508,1375.13616 34.8626449,1322.71103 34.8626449,1322.71103 L-2.27373675e-13,935.20125" id="Path-2639-Copy-3" stroke-width="25" transform="translate(57.862268, 1188.343956) scale(-1, 1) translate(-57.862268, -1188.343956) "></path>
                <path d="M155.20905,1519.77631 L147.006608,2271.95041 L291.125481,2283.85578 C291.125481,2283.85578 319.610842,2013.00865 339.635286,1790.903 C353.562492,1636.42624 352.051083,1519.45503 367.503297,1519.77631 C382.597912,1520.09015 390.40151,1631.7715 402.979219,1782.07686 C421.78976,2006.86542 446.73535,2286.99146 446.73535,2286.99146 L588,2286.99146 L576.350114,1530.80368" id="Path-2645-Copy" stroke-width="25"></path>
                <path d="M166.31142,2277 C166.31142,2277 160.600677,2310.72493 157.728675,2318.32376 C154.856673,2325.9226 126.4813,2346.65773 131.620848,2365.90072 C138.275705,2390.81717 202.875088,2387.01707 230.133306,2388.92739 C250.626433,2390.36359 254.876586,2380.4861 266.05402,2368.87177 C292.098729,2341.80906 283.885804,2277 283.885804,2277" id="Path-2646-Copy-2" stroke-width="25"></path>
                <path d="M492.31142,2286 C492.31142,2286 486.600677,2319.72493 483.728675,2327.32376 C480.856673,2334.9226 452.4813,2355.65773 457.620848,2374.90072 C464.275705,2399.81717 528.875088,2396.01707 556.133306,2397.92739 C576.626433,2399.36359 580.876586,2389.4861 592.05402,2377.87177 C618.098729,2350.80906 609.885804,2286 609.885804,2286" id="Path-2646-Copy-3" stroke-width="25" transform="translate(534.057155, 2342.033340) scale(-1, 1) translate(-534.057155, -2342.033340) "></path>
                <path d="M131.86995,2362.07864 C131.86995,2362.07864 123.162563,2405.80961 131.86995,2417.15179 C140.577337,2428.49397 221.871979,2443.46259 256.914215,2430.30719 C291.956451,2417.15179 286.587626,2293 286.587626,2293" id="Path-2647-Copy-2" stroke-width="25"></path>
                <path d="M460.86995,2369.07864 C460.86995,2369.07864 452.162563,2412.80961 460.86995,2424.15179 C469.577337,2435.49397 550.871979,2450.46259 585.914215,2437.30719 C620.956451,2424.15179 615.587626,2300 615.587626,2300" id="Path-2647-Copy-3" stroke-width="25" transform="translate(536.441492, 2371.220185) scale(-1, 1) translate(-536.441492, -2371.220185) "></path>
                <path d="M185,2325.81432 C185,2325.81432 235.41199,2307.47831 253.184286,2330.9619" id="Path-2648-Copy-7" stroke-width="10"></path>
                <path d="M491,2335.81432 C491,2335.81432 541.41199,2317.47831 559.184286,2340.9619" id="Path-2648-Copy-8" stroke-width="10" transform="translate(525.092143, 2334.980948) scale(-1, 1) translate(-525.092143, -2334.980948) "></path>
                <path d="M192,2308.81432 C192,2308.81432 242.41199,2290.47831 260.184286,2313.9619" id="Path-2648-Copy-9" stroke-width="10"></path>
                <path d="M485,2320.81432 C485,2320.81432 535.41199,2302.47831 553.184286,2325.9619" id="Path-2648-Copy-10" stroke-width="10" transform="translate(519.092143, 2319.980948) scale(-1, 1) translate(-519.092143, -2319.980948) "></path>
                <path d="M170,2341.81432 C170,2341.81432 220.41199,2323.47831 238.184286,2346.9619" id="Path-2648-Copy-11" stroke-width="10"></path>
                <path d="M501,2350.81432 C501,2350.81432 551.41199,2332.47831 569.184286,2355.9619" id="Path-2648-Copy-12" stroke-width="10" transform="translate(535.092143, 2349.980948) scale(-1, 1) translate(-535.092143, -2349.980948) "></path>
                <path d="M262.676212,621.661399 C189.561819,621.661399 106.802714,638.634045 91.1834143,669.872654 C75.5641148,701.111262 -6.13271442,906.070535 4.48741335,918.233482 C15.1075411,930.396429 155.730115,948.112419 155.730115,948.112419 L170.05768,866.075511 C171.958609,855.191153 172.192246,855.228882 170.621796,866.160472 C170.621796,866.160472 163.275322,913.99087 155.730115,984.999992 C146.349302,1073.2843 131.323286,1236.56075 143.636549,1354.01791 C126.077024,1470.7394 131.236879,1518.78215 135.008863,1521.40774 C142.289296,1526.47547 272.854954,1518.56817 373.871198,1521.40774 C471.857294,1524.16213 599.748951,1543.12444 609.716993,1521.40774 C614.627159,1510.71029 606.060621,1430.54317 583.984876,1363.65438 C592.813001,1238.6758 580.958058,1071.03551 567.807386,984.999992 C557.017132,914.407015 549.761547,866.141038 549.761547,866.141038 C548.115211,855.22049 548.452511,855.163532 550.515532,866.016998 L567.807386,956.9887 C567.807386,956.9887 725.395353,941.375722 725.395322,918.233474 C725.39529,895.091226 669.878435,693.38224 644.997428,669.872654 C620.116421,646.363067 477.389682,625.956126 477.389682,625.956126" id="Path-2678" stroke-width="25"></path>
                <path d="M226,1219 C226,1219 270.586826,1266.53706 381.691593,1266.53706 C492.79636,1266.53706 502.457799,1234.98016 502.457799,1234.98016" id="Path-2678" stroke-width="10"></path>
                <path d="M387.796854,1314.53706 L432.135406,1314.53706 C459.052101,1314.53706 473.268434,1302.67215 473.268434,1302.67215" id="Path-2678-Copy" stroke-width="10"></path>
                <path d="M248.466414,507.131757 C248.466414,507.131757 292.28908,563.20452 359.442873,566.149153 C426.596667,569.093786 476.988539,511.538611 476.988539,511.538611" id="Path-2680" stroke-width="25"></path>
            </g>
            <g id="Group-3" transform="translate(3867.000000, 381.000000)">
                <polygon id="Path-2786" fill="#FFAAAA" points="282.430492 728.501923 244 1469.81429 366.277904 1500.81592 464.077591 1482.52156 422.097294 825.632807 436.738952 695 379.314433 748.771822"></polygon>
                <g id="Group" transform="translate(24.000000, 0.000000)">
                    <path d="M170.826493,317.656549 C170.826493,317.656549 171.237686,287 131.763378,287 C92.2890707,287 100.824395,375.281392 108.537335,391.118464 C116.250276,406.955536 117.03943,425.974133 130.982531,425.974142 C144.925632,425.974152 172.12652,410.224293 172.12652,410.224293" id="Path-2631" stroke-width="25" fill="#FFFFFF"></path>
                    <path d="M557.346985,317.656549 C557.346985,317.656549 557.758178,287 518.28387,287 C478.809563,287 487.344886,375.281392 495.057827,391.118464 C502.770768,406.955536 503.559922,425.974133 517.503023,425.974142 C531.446124,425.974152 558.647012,410.224293 558.647012,410.224293" id="Path-2631-Copy" stroke-width="25" fill="#FFFFFF" transform="translate(523.583752, 356.487071) scale(-1, 1) translate(-523.583752, -356.487071) "></path>
                    <use id="Rectangle-979-Copy" mask="url(#mask-6)" stroke-width="50" fill="#FFFFFF" xlink:href="#path-5"></use>
                    <path d="M132.277904,226.998579 C132.277904,226.998579 119.763941,261.466901 137.0771,281.061628 C145.767524,290.897296 150.565532,299.034878 150.565532,299.034878 C150.565532,299.034878 170.823914,295.564223 183.40444,290.635053 C208.664251,280.73802 239.937204,244.980817 262.914011,253.166334 C285.890817,261.35185 304.052316,280.199964 353.132852,301.413068 C402.213388,322.626173 462.797154,320.544255 466.825327,322.626173 C474.636536,326.663312 397.554502,293.438028 365.7774,259.67453 C336.109548,228.152132 319.058867,191.437751 325.056351,193.208775 C331.72088,195.176773 347.042311,245.552464 380.491557,269.507996 C418.268245,296.562735 488.377567,325.620753 491.297832,322.62616 C493.86751,318.392622 452.069551,289.07313 422.284006,248.673811 C396.86006,214.190301 381.788602,168.020462 381.788602,168.020462 C381.072264,165.941157 380.863181,166.016315 381.353313,168.162914 C381.353313,168.162914 390.841775,217.672223 422.284005,253.166333 C453.726235,288.660443 491.29783,331.486799 505.938486,301.413068 C511.619224,289.744125 484.753358,263.318224 466.825327,235.261808 C449.141806,207.588038 435.928409,177.817846 435.928409,177.817846 C435.01187,175.811177 435.080424,175.783577 436.088167,177.751448 C436.088167,177.751448 512.147317,329.046353 523.998086,284.940259 C526.791421,281.408429 517.366872,185.50756 517.366872,185.50756 C515.969451,170.668472 511.089498,147.142506 506.226554,133.047105 C506.226554,133.047105 499.666025,110.268444 491.297832,98.5388508 C486.345922,91.5978202 483.301768,76.6425076 453.242096,53.7335693 C423.182424,30.8246309 333.274028,2.18256497 325.056351,0.4014366 C317.490655,-1.23837904 321.137256,19.4977543 313.171784,19.4977543 C299.496736,19.4977543 293.015013,-0.724950811 279.771332,3.99779903 C274.406064,5.91107527 282.884116,27.5480483 270.548966,33.1345054 C261.128177,37.4010795 249.4107,24.3759975 235.791789,33.1345063 C184.141065,66.3517976 181.782719,85.6649552 169.945938,98.5388527 C145.665748,124.946428 139.783501,170.824966 139.783501,170.824966 C138.288797,178.96548 136.371541,192.251963 135.502341,200.490242 L132.277904,231.051466" id="Path-2627" stroke-width="25" fill="#FFFFFF" transform="translate(326.210555, 161.634685) scale(-1, 1) translate(-326.210555, -161.634685) "></path>
                    <ellipse id="Oval-1831" fill="#979797" cx="235.45093" cy="330" rx="17.4509303" ry="16"></ellipse>
                    <ellipse id="Oval-1831-Copy" fill="#979797" cx="422.45093" cy="330" rx="17.4509303" ry="16"></ellipse>
                    <path d="M324.068859,339.220729 C324.068859,339.220729 326.518386,366.22283 301.509038,386.519385 C276.499689,406.815941 278.272238,408.832549 277.014748,419.536808 C275.757259,430.241067 293.289014,447.28277 308.164269,447.282772 C323.039524,447.282773 342.030521,435.549717 342.030521,435.549717" id="Path-2629" stroke-width="25"></path>
                    <path d="M261.080452,491.702626 C261.080452,491.702626 287.989384,516.935448 325.109717,516.935447 C362.230049,516.935446 392.099434,489.694364 392.099434,489.694364" id="Path-2630" stroke-width="25"></path>
                    <path d="M280.790457,568.481991 C280.790457,568.481991 283.470703,650.213876 252.267208,668.422869" id="Path-2633" stroke-width="25"></path>
                    <path d="M404.942393,568 C404.942393,568 407.622639,649.731884 376.419143,667.940878" id="Path-2633-Copy" stroke-width="25" transform="translate(390.709572, 617.970439) scale(-1, 1) translate(-390.709572, -617.970439) "></path>
                    <path d="M252.40444,657.972158 C252.40444,657.972158 241.518886,749.446288 325.087678,749.446288 C408.65647,749.446288 408.656472,655.491309 408.656472,655.491309" id="Path-2635" stroke-width="25"></path>
                    <path d="M417.183288,667 C417.183288,667 506.871857,681.984527 564.364709,708.574815 C640.610681,743.838371 636.586424,955.300964 646.591002,1045.25781 C656.595579,1135.21466 649.452341,1092.99337 649.452345,1098.78525 C649.45235,1106.36132 621.882433,1116.49286 595.177443,1117.73282 C577.15999,1118.5694 556.499922,1111.5087 556.499922,1111.5087 C556.499922,1111.5087 556.499917,1124.94408 556.499917,1091.77736 C556.499917,1058.61065 505.542764,782.818404 505.542764,782.818404 C505.542764,782.818404 556.963141,1456.39502 531.662223,1505.29132 C501.021261,1519.25762 444.625549,1545.58485 439.723353,1519.81866 C434.821157,1494.05248 393.141645,857.400468 393.742664,823.205139 C394.343683,789.00981 417.183288,667 417.183288,667 Z" id="Path-2636-Copy-2" stroke-width="25"></path>
                    <path d="M23.9215199,669 C23.9215199,669 113.610088,683.984527 171.102941,710.574815 C247.348912,745.838371 246.670369,980.880727 256.674947,1070.83758 C256.739083,1071.41426 262.076856,1115.61476 262.076856,1124.6889 C262.076856,1133.82159 168.927244,1138.60263 168.927244,1138.60263 C168.927244,1138.60263 164.382795,1117.31366 164.382795,1084.14694 C164.382795,1050.98022 112.280995,784.818404 112.280995,784.818404 C112.280995,784.818404 156.575222,1462.52014 131.274304,1511.41644 C99.2279541,1532.5728 38.8973912,1548.66786 33.9951951,1522.90167 C29.092999,1497.13549 -0.120123391,859.400468 0.480895635,825.205139 C1.08191466,791.00981 23.9215199,669 23.9215199,669 Z" id="Path-2636-Copy-2" stroke-width="25" transform="translate(131.274304, 1102.587275) scale(-1, 1) translate(-131.274304, -1102.587275) "></path>
                    <path d="M163.965814,1524.11139 L138.62358,2381.82997 L261.227778,2389.03163 C261.227778,2389.03163 297.539853,1549.03656 329.560759,1549.81978 C361.581665,1550.60299 396.886825,2389.03163 396.886825,2389.03163 L514.666641,2389.03163 L495.415603,1514.48745" id="Path-2645" stroke-width="25"></path>
                    <path d="M235.060031,1484.11723 C235.060031,1484.11723 252.751534,1490.5 322.1235,1496 C391.495465,1501.5 433.783114,1484.11723 433.783114,1484.11723" id="Line" stroke-width="25" stroke-linecap="square"></path>
                    <path d="M152.74012,2389.60393 C152.74012,2389.60393 134.600677,2423.32885 131.728675,2430.92769 C128.856673,2438.52652 100.4813,2459.26165 105.620848,2478.50464 C112.275705,2503.4211 176.875088,2499.621 204.133306,2501.53132 C224.626433,2502.96752 228.876586,2493.09002 240.05402,2481.4757 C266.098729,2454.41298 257.885804,2389.60393 257.885804,2389.60393" id="Path-2646" stroke-width="25"></path>
                    <path d="M436.278152,2393.60393 C436.278152,2393.60393 424.600677,2432.05583 421.728675,2439.65467 C418.856673,2447.2535 390.4813,2467.98863 395.620848,2487.23162 C402.275705,2512.14808 466.875088,2508.34798 494.133306,2510.25829 C514.626433,2511.6945 518.876586,2501.817 530.05402,2490.20268 C556.098729,2463.13996 547.885804,2398.33091 547.885804,2398.33091" id="Path-2646-Copy" stroke-width="25" transform="translate(472.057155, 2452.000756) scale(-1, 1) translate(-472.057155, -2452.000756) "></path>
                    <path d="M105.86995,2474.68257 C105.86995,2474.68257 97.1625627,2518.41354 105.86995,2529.75572 C114.577337,2541.0979 195.871979,2556.06651 230.914215,2542.91112 C265.956451,2529.75572 260.587626,2405.60393 260.587626,2405.60393" id="Path-2647" stroke-width="25"></path>
                    <path d="M398.86995,2481.68257 C398.86995,2481.68257 390.162563,2525.41354 398.86995,2536.75572 C407.577337,2548.0979 488.871979,2563.06651 523.914215,2549.91112 C558.956451,2536.75572 553.587626,2412.60393 553.587626,2412.60393" id="Path-2647-Copy" stroke-width="25" transform="translate(474.441492, 2483.824112) scale(-1, 1) translate(-474.441492, -2483.824112) "></path>
                    <path d="M153,2443.41824 C153,2443.41824 203.41199,2425.08223 221.184286,2448.56582" id="Path-2648-Copy" stroke-width="10"></path>
                    <path d="M439,2448.41824 C439,2448.41824 489.41199,2430.08223 507.184286,2453.56582" id="Path-2648-Copy-4" stroke-width="10" transform="translate(473.092143, 2447.584875) scale(-1, 1) translate(-473.092143, -2447.584875) "></path>
                    <path d="M146,2457.41824 C146,2457.41824 196.41199,2439.08223 214.184286,2462.56582" id="Path-2648-Copy-2" stroke-width="10"></path>
                    <path d="M442,2463.41824 C442,2463.41824 492.41199,2445.08223 510.184286,2468.56582" id="Path-2648-Copy-6" stroke-width="10" transform="translate(476.092143, 2462.584875) scale(-1, 1) translate(-476.092143, -2462.584875) "></path>
                </g>
                <path d="M210.466618,2427.36537 C214.65269,2418.97269 179.027884,2403.22611 166.970455,2412.5703 C154.913027,2421.91448 206.280547,2435.75804 210.466618,2427.36537 Z" id="Path-2781" stroke-width="10" transform="translate(187.974330, 2419.830567) rotate(-25.000000) translate(-187.974330, -2419.830567) "></path>
                <path d="M483.805941,2438.64096 C487.992013,2430.24828 443.11982,2413.23449 431.062392,2422.57868 C419.004964,2431.92286 479.61987,2447.03363 483.805941,2438.64096 Z" id="Path-2781-Copy-2" stroke-width="10" transform="translate(456.779631, 2430.472580) rotate(-32.000000) translate(-456.779631, -2430.472580) "></path>
                <path d="M259.466618,2427.36537 C263.65269,2418.97269 228.027884,2403.22611 215.970455,2412.5703 C203.913027,2421.91448 255.280547,2435.75804 259.466618,2427.36537 Z" id="Path-2781-Copy" stroke-width="10" transform="translate(236.974330, 2419.830567) scale(-1, 1) rotate(-25.000000) translate(-236.974330, -2419.830567) "></path>
                <path d="M532.337509,2431.22492 C536.52358,2422.83224 500.898774,2407.08566 488.841346,2416.42985 C476.783918,2425.77403 528.151438,2439.61759 532.337509,2431.22492 Z" id="Path-2781-Copy-3" stroke-width="10" transform="translate(509.845220, 2423.690116) scale(-1, 1) rotate(-18.000000) translate(-509.845220, -2423.690116) "></path>
                <path d="M278.018494,773.339355 C278.018494,773.339355 258.868598,750.174883 249.908794,751.499386 C240.94899,752.823888 237.924687,797.455207 237.924687,797.455207 C237.884,798.005465 237.418719,798.306337 236.903926,798.12555 C236.903926,798.12555 216.346605,791.559495 211.721855,778.847759 C201.067279,749.562245 216.675333,680 216.675333,680" id="Path-2786" stroke-width="25"></path>
                <path d="M495.018494,774.339355 C495.018494,774.339355 475.868598,751.174883 466.908794,752.499386 C457.94899,753.823888 454.924687,798.455207 454.924687,798.455207 C454.884,799.005465 454.418719,799.306337 453.903926,799.12555 C453.903926,799.12555 433.346605,792.559495 428.721855,779.847759 C418.067279,750.562245 433.675333,681 433.675333,681" id="Path-2786-Copy" stroke-width="25" transform="translate(460.009247, 740.089046) scale(-1, 1) translate(-460.009247, -740.089046) "></path>
                <path d="M104.956078,1123 C104.956078,1123 144.658234,1137.7535 123.732368,1156.16448 C102.806503,1174.57546 13.7528323,1183.07678 4.57093208,1165.28026 C-4.61096812,1147.48375 13.7528321,1129.44915 13.7528321,1129.44915" id="Path-2637-Copy" stroke-width="25" transform="translate(65.911989, 1149.038244) scale(-1, 1) translate(-65.911989, -1149.038244) "></path>
                <path d="M676.956078,1103 C676.956078,1103 716.658234,1117.7535 695.732368,1136.16448 C674.806503,1154.57546 585.752832,1163.07678 576.570932,1145.28026 C567.389032,1127.48375 585.752832,1109.44915 585.752832,1109.44915" id="Path-2637-Copy-3" stroke-width="25"></path>
                <path d="M118.048988,1156 C118.048988,1156 150.022636,1176.18694 129.096771,1194.59793 C108.170906,1213.00891 11.7528323,1218.58251 2.57093208,1200.78599 C-6.61096812,1182.98947 11.7528321,1164.95488 11.7528321,1164.95488" id="Path-2637-Copy-2" stroke-width="25" transform="translate(68.099895, 1183.811254) scale(-1, 1) translate(-68.099895, -1183.811254) "></path>
                <path d="M690.048988,1136 C690.048988,1136 722.022636,1156.18694 701.096771,1174.59793 C680.170906,1193.00891 583.752832,1198.58251 574.570932,1180.78599 C565.389032,1162.98947 583.752832,1144.95488 583.752832,1144.95488" id="Path-2637-Copy-4" stroke-width="25"></path>
                <path d="M81.3635712,1198 C81.3635712,1198 74.0992446,1409.13102 74.0992446,1418.30705 C74.0992446,1427.48308 102.715258,1451.33477 102.715259,1479.20049 C102.715259,1507.06621 106.073586,1546.39648 81.3635728,1544.95605 C56.6535594,1543.51562 69.8229235,1495.60713 69.8229234,1487.76889 C69.8229234,1479.93065 53.0599878,1457.45309 53.0599878,1457.45309 C53.0599878,1457.45309 48.5880451,1452.44309 48.5880449,1457.45309 C48.5880446,1462.4631 55.4320272,1483.33762 55.4320272,1483.33762 C55.4320272,1483.33762 63.8209779,1493.94127 55.17702,1500.20416 C36.8216836,1512.29708 27.3966848,1500.23249 18.5461308,1483.33763 C9.6955767,1466.44276 22.0067708,1414.01764 22.0067708,1414.01764 L13,1203.98553" id="Path-2639-Copy" stroke-width="25" transform="translate(57.934331, 1371.497257) scale(-1, 1) translate(-57.934331, -1371.497257) "></path>
                <path d="M667.363571,1179 C667.363571,1179 660.099245,1390.13102 660.099245,1399.30705 C660.099245,1408.48308 688.715258,1432.33477 688.715259,1460.20049 C688.715259,1488.06621 692.073586,1527.39648 667.363573,1525.95605 C642.653559,1524.51562 655.822923,1476.60713 655.822923,1468.76889 C655.822923,1460.93065 639.059988,1438.45309 639.059988,1438.45309 C639.059988,1438.45309 634.588045,1433.44309 634.588045,1438.45309 C634.588045,1443.4631 641.432027,1464.33762 641.432027,1464.33762 C641.432027,1464.33762 649.820978,1474.94127 641.17702,1481.20416 C622.821684,1493.29708 613.396685,1481.23249 604.546131,1464.33763 C595.695577,1447.44276 608.006771,1395.01764 608.006771,1395.01764 L599,1184.98553" id="Path-2639-Copy-3" stroke-width="25"></path>
            </g>
            <g id="Group-4" transform="translate(4962.000000, 552.000000)">
                <g id="Group-2" transform="translate(0.309559, 0.000000)">
                    <g id="Group-Copy" transform="translate(0.000000, 94.000000)">
                        <path d="M497.346985,252.656549 C497.346985,252.656549 497.758178,222 458.28387,222 C418.809563,222 427.344886,310.281392 435.057827,326.118464 C442.770768,341.955536 443.559922,360.974133 457.503023,360.974142 C471.446124,360.974152 498.647012,345.224293 498.647012,345.224293" id="Path-2631-Copy" stroke-width="25" fill="#FFFFFF" transform="translate(463.583752, 291.487071) scale(-1, 1) translate(-463.583752, -291.487071) "></path>
                        <use id="Rectangle-979-Copy" mask="url(#mask-8)" stroke-width="50" fill="#FFFFFF" xlink:href="#path-7"></use>
                        <path d="M385.5,253.878703 C396.269553,253.878703 407.415958,245.874134 407.415958,235.999999 C407.415958,226.125864 396.269553,218.121297 385.5,218.121297 C374.730447,218.121297 364.184282,226.125864 364.184282,235.999999 C364.184282,245.874134 374.730447,253.878703 385.5,253.878703 Z" id="Oval-1831-Copy" fill="#979797"></path>
                        <path d="M225.315718,253.757406 C236.08527,253.757406 247.231676,245.752837 247.231676,235.878702 C247.231676,226.004567 236.08527,218 225.315718,218 C214.546165,218 204,226.004567 204,235.878702 C204,245.752837 214.546165,253.757406 225.315718,253.757406 Z" id="Oval-1831-Copy-2" fill="#979797"></path>
                        <path d="M265,396.496968 C265,396.496968 279.40272,415.305636 299.270984,415.305636 C319.139249,415.305635 335.12652,395 335.12652,395" id="Path-2630" stroke-width="25"></path>
                        <path d="M251.790457,470.481991 C251.790457,470.481991 254.470703,552.213876 223.267208,570.422869" id="Path-2633" stroke-width="25"></path>
                        <path d="M384.29598,470 C384.29598,470 371.524291,555.585701 347.47675,578.446518" id="Path-2633-Copy" stroke-width="25" transform="translate(365.886365, 524.223259) scale(-1, 1) translate(-365.886365, -524.223259) "></path>
                        <path d="M213.939729,593.84775 C213.939729,593.84775 212.518886,651.446288 296.087678,651.446288 C379.65647,651.446288 389.106436,588.037993 389.106436,588.037993" id="Path-2635" stroke-width="25"></path>
                        <path d="M379.651591,570.91073 C379.651591,570.91073 404.932982,655.656351 429.277033,663.945995 C440.059657,667.617698 439.401895,582.327688 452.045616,587.035193 C471.074252,594.119928 491.197276,602.172427 509.364709,610.574815 C585.610681,645.838371 584.932138,880.880727 594.936715,970.837576 C604.941293,1060.79442 594.936718,1275.83745 594.936722,1281.62933 C594.93673,1294.31687 513.814468,1273.23193 513.814468,1273.23193 C513.814468,1273.23193 501.499917,1026.94408 501.499917,993.777364 C501.499917,960.610647 487.088716,790.748997 487.088716,790.748997 C487.088716,790.748997 501.144603,1345.60224 475.843684,1394.49855 C445.202722,1408.46484 388.694671,1420.26472 383.792475,1394.49854 C381.261179,1381.19392 388.512022,1175.09273 410.035475,1026.1805 C418.418401,968.182357 475.843683,852.122913 450.542764,739.559498 C444.672073,713.440878 379.651591,570.91073 379.651591,570.91073 Z" id="Path-2636-Copy-2" stroke-width="25" fill="#FFFFFF"></path>
                        <path d="M0.629584591,566.57127 C0.629584591,566.57127 36.3140039,652.291878 59.8997853,659.896399 C70.0268386,663.161561 69.5725079,584.382737 81.5127629,588.660084 C100.505838,595.463957 120.829433,603.400241 139.418609,611.997685 C215.664581,647.261241 214.986038,882.303597 224.990615,972.260445 C234.995193,1062.21729 218.666079,1273.11793 218.666083,1278.90981 C218.666091,1291.59734 139.418609,1274.65482 139.418609,1274.65482 C139.418609,1274.65482 131.553817,1028.36695 131.553817,995.200234 C131.553817,962.033516 118.305632,804.657153 118.305632,804.657153 C118.305632,804.657153 131.198503,1347.02511 105.897584,1395.92142 C75.2566226,1409.88771 18.7485709,1421.68759 13.8463748,1395.9214 C11.315079,1382.61679 11.5758355,1186.97169 33.0992883,1038.05945 C41.4822146,980.061312 96.5884937,870.216423 90.0210584,789.613257 C82.4614957,696.833556 0.629584591,566.57127 0.629584591,566.57127 Z" id="Path-2636-Copy-3" stroke-width="25" fill="#FFFFFF" transform="translate(114.432139, 988.853839) scale(-1, 1) translate(-114.432139, -988.853839) "></path>
                        <path d="M77.49173,1345.49816 C84.4854723,1353.49829 91.5531379,1362.10063 91.553138,1376.17922 C91.5531384,1404.04493 94.9114655,1443.37521 70.2014521,1441.93478 C45.4914387,1440.49435 58.6608028,1392.58586 58.6608027,1384.74762 C58.6608026,1376.90938 41.8978671,1354.43182 41.8978671,1354.43182 C41.8978671,1354.43182 37.4259244,1349.42182 37.4259242,1354.43182 C37.4259239,1359.44183 44.2699065,1380.31635 44.2699065,1380.31635 C44.2699065,1380.31635 52.6588572,1390.92 44.0148992,1397.18288 C25.6595629,1409.27581 16.2345641,1397.21122 7.38401003,1380.31636 C-1.46654403,1363.42149 7.38401014,1317.15592 7.38401014,1317.15592" id="Path-2639-Copy" stroke-width="25" transform="translate(47.578486, 1379.564583) scale(-1, 1) translate(-47.578486, -1379.564583) "></path>
                        <path d="M588.595567,1344.49816 C595.589309,1352.49829 602.656975,1361.10063 602.656975,1375.17922 C602.656975,1403.04493 606.015302,1442.37521 581.305289,1440.93478 C556.595275,1439.49435 569.764639,1391.58586 569.764639,1383.74762 C569.764639,1375.90938 553.001704,1353.43182 553.001704,1353.43182 C553.001704,1353.43182 548.529761,1348.42182 548.529761,1353.43182 C548.529761,1358.44183 555.373743,1379.31635 555.373743,1379.31635 C555.373743,1379.31635 563.762694,1389.92 555.118736,1396.18288 C536.7634,1408.27581 527.338401,1396.21122 518.487847,1379.31636 C509.637293,1362.42149 514.108761,1318.82279 514.108761,1318.82279" id="Path-2639-Copy-2" stroke-width="25"></path>
                        <path d="M124.009847,1398 C124.009847,1398 132.043121,1627.54874 142.118743,1762.71475 C152.194366,1897.88077 171.949529,2120.57831 171.949529,2120.57831 L237.261388,2120.57831 C237.261388,2120.57831 240.902686,1974.79712 264.070028,1762.71475 C281.923133,1599.28086 277.624475,1451.4789 291.560759,1451.81978 C305.509131,1452.16095 336.951238,1670.95264 336.951238,1762.71475 C336.951238,1854.47687 356.667516,2120.57831 356.667516,2120.57831 L420.761007,2120.57831 C420.761007,2120.57831 444.967295,1954.13242 449.135,1762.71475 C451.0274,1675.7991 475.582662,1398 475.582662,1398" id="Path-2645" stroke-width="25"></path>
                        <path d="M222,1247 C222,1247 242.173037,1252.89195 295.327197,1257.96902 C348.481357,1263.04609 380.882984,1247 380.882984,1247" id="Line" stroke-width="25" stroke-linecap="square"></path>
                        <path d="M419,2117.38472 C419,2117.38472 433.45839,2160.99878 435.245026,2169.03208 C437.031663,2177.06537 454.683631,2198.98603 451.486382,2219.32923 C447.346478,2245.67028 407.160002,2241.6529 390.203002,2243.67244 C377.454482,2245.19076 374.810514,2234.74852 367.857171,2222.47015 C351.65508,2193.86014 356.764239,2125.34564 356.764239,2125.34564" id="Path-2646-Copy" stroke-width="25"></path>
                        <path d="M204,2116 C204,2116 218.45839,2159.61406 220.245026,2167.64735 C222.031663,2175.68065 239.683631,2197.6013 236.486382,2217.94451 C232.346478,2244.28555 192.160002,2240.26818 175.203002,2242.28772 C162.454482,2243.80604 159.810514,2233.3638 152.857171,2221.08543 C136.65508,2192.47541 141.764239,2123.96092 141.764239,2123.96092" id="Path-2646-Copy-2" stroke-width="25" transform="translate(188.936302, 2179.217488) scale(-1, 1) translate(-188.936302, -2179.217488) "></path>
                        <path d="M452.431689,2212.40574 C452.431689,2212.40574 457.848447,2258.63701 452.431689,2270.62768 C447.014931,2282.61834 396.442541,2298.44278 374.6432,2284.53523 C352.843858,2270.62768 356.183738,2139.37755 356.183738,2139.37755" id="Path-2647-Copy" stroke-width="25"></path>
                        <path d="M233.431689,2213.02819 C233.431689,2213.02819 238.848447,2259.25947 233.431689,2271.25013 C228.014931,2283.2408 177.442541,2299.06523 155.6432,2285.15768 C133.843858,2271.25013 137.183738,2140 137.183738,2140" id="Path-2647-Copy-2" stroke-width="25" transform="translate(186.419568, 2215.292175) scale(-1, 1) translate(-186.419568, -2215.292175) "></path>
                        <path d="M10.7448255,1270.78516 C10.7448255,1270.78516 7.51277732,1345.95265 10.7448254,1348.76056 C13.9768734,1351.56847 79.6390634,1350.2692 84.8117013,1345.27796 C89.9843392,1340.28672 84.8117013,1270.78516 84.8117013,1270.78516" id="Path-2785" stroke-width="25"></path>
                        <path d="M514.150157,1271.78875 C514.150157,1271.78875 518.562807,1340.5863 521.794855,1343.3942 C525.026903,1346.20211 588.735209,1348.38544 593.907847,1343.3942 C599.080485,1338.40296 593.907847,1271.78875 593.907847,1271.78875" id="Path-2785-Copy" stroke-width="25" transform="translate(555.178477, 1309.081434) scale(-1, 1) translate(-555.178477, -1309.081434) "></path>
                    </g>
                    <path d="M405.065155,191.517303 C380.084442,169.542496 385.835052,173.851364 378.575378,166.427841 C371.315704,159.004318 362.270996,134.455376 315.045502,140.996292 C276.04202,140.996292 242.327273,192.715101 218.296519,245.614664 C205.884621,272.93732 200.183361,314.248156 193.54393,335.237244 C182.354696,370.609523 153.098953,438.557831 153.098953,451.933533 C153.098953,465.309235 169.702662,489.753443 183.227556,506.282139 C206.402895,534.604588 256.729891,566.274662 256.729845,571.9538 C256.729815,575.665539 253.560246,597.155337 244.610033,602.200382 C232.614164,608.9622 213.600478,604.654559 195.18149,611.754398 C182.532542,616.630101 190.475939,612.219486 169.833391,618.551335 C149.190844,624.883183 123.347508,627.44016 122.968521,645.049561 C122.50794,666.450195 148.668769,698.715746 148.418621,717.682789 C148.134555,739.221639 147.989147,758.730731 147.989146,775.163928 C147.989146,899.65497 100.172586,927.329987 100.172587,986.494812 C100.172587,1045.65964 152.522599,1118.28792 152.522599,1118.28792 C152.840908,1118.73722 152.698768,1118.8824 152.225857,1118.61984 C152.225857,1118.61984 21.8900354,1048.39075 17.0613389,944.578674 C15.4465163,909.861629 46.2197535,853.964272 49.9240902,785.77478 C52.0810287,746.06982 57.0935358,704.263495 59.0148154,663.355334 C59.748306,647.737746 58.0427437,579.604658 57.6722242,571.953826 C54.52523,506.971762 49.9240912,446.766616 49.924091,415.215881 C49.9240904,317.423161 72.1334193,139.911988 174.45755,50.608562 C276.781681,-38.6948636 385.079773,16.0958356 397.90567,26.0282787 C405.659926,32.0332159 406.765495,43.5638074 420.35611,50.6085626 C429.244998,55.2161573 446.906715,50.3481724 463.343079,67.0046008 C470.411835,74.1679999 504.697022,108.039081 511.715637,124.490315 C545.968823,204.777825 554.942218,369.56521 554.9422,430.748448 C554.942197,439.199739 554.73172,451.840091 554.283255,467.727181 C554.1536,472.320285 561.349556,492.954612 570.983215,503.624333 C583.259119,517.220461 612.933698,515.860171 612.648804,523.135868 C612.243435,533.488254 552.201052,524.434794 551.650991,536.095209 C548.698634,598.680453 543.60503,678.151626 535.757402,753.522034 C521.824412,887.337646 584.595115,888.093628 554.942185,980.565148 C530.30262,1057.40268 431.439049,1118.57468 431.439049,1118.57468 C430.977461,1118.8656 430.780222,1118.69456 431.004901,1118.17581 C431.004901,1118.17581 488.644634,986.220471 488.644627,933.577759 C488.644624,914.83026 448.856275,854.107403 448.856277,775.16394 C448.856278,735.762206 451.341483,706.626715 453.800268,681.74818 C455.13334,668.259866 467.476773,656.992937 468.394043,645.049561 C469.221926,634.270053 458.699296,622.759661 458.568122,611.754427 C458.508873,606.783573 458.321774,601.717869 457.979706,596.492432 C455.859604,564.105742 449.220874,517.153495 457.979706,468.791534 C464.415802,433.254578 465.417851,403.305266 463.343079,377.186462 C457.731744,306.546752 456.375496,286.952683 436.242065,236.907272 C434.188433,231.802585 430.045868,213.492111 405.065155,191.517303 Z" id="Path-2784" stroke-width="25" fill="#FFFFFF"></path>
                    <path d="M546.433861,631.079596 C546.433861,631.079596 531.255833,700.102141 588.355339,757.904974 C672.020801,842.600991 479.711986,947.161747 479.711986,947.161747 C479.233248,947.42643 479.128727,947.286334 479.462874,946.864693 C479.462874,946.864693 557.473652,850.236487 531.255833,805.048529 C505.038014,759.860571 475.101908,769.643546 471.642899,684.3953" id="Path-2799" stroke-width="25" fill="#FFFFFF"></path>
                    <path d="M305.252299,347 C305.252299,347 310.831966,366.068147 293.3947,386.364703 C275.957433,406.661258 274,418.707672 274,418.707672 C274,418.707672 277.487161,435.701811 287.858634,435.701813 C298.230107,435.701814 307.181,429.883949 307.181,429.883949" id="Path-2629" stroke-width="25"></path>
                    <path d="M168.828807,766.975622 L143.710903,674.716539 C143.710903,674.716539 122.781942,639.874307 145.805374,627.968892 C168.828806,616.063478 246.063744,603 246.063744,603" id="Path-2782" stroke-width="25"></path>
                    <path d="M382.828807,763.975622 L357.710903,671.716539 C357.710903,671.716539 336.781942,636.874307 359.805374,624.968892 C382.828806,613.063478 460.063744,600 460.063744,600" id="Path-2782-Copy" stroke-width="25" transform="translate(404.531872, 681.987811) scale(-1, 1) translate(-404.531872, -681.987811) "></path>
                    <g id="Path-2784-Copy-2" transform="translate(214.194713, 1003.483328) scale(-1, 1) rotate(-20.000000) translate(-214.194713, -1003.483328) ">
                        <use stroke-width="10" xlink:href="#path-9"></use>
                        <use stroke-width="1" xlink:href="#path-9"></use>
                    </g>
                    <g id="Path-2784-Copy-3" transform="translate(386.494685, 1003.913022) rotate(-20.000000) translate(-386.494685, -1003.913022) ">
                        <use stroke-width="10" xlink:href="#path-10"></use>
                        <use stroke-width="1" xlink:href="#path-10"></use>
                    </g>
                    <path d="M463.321886,398.377463 C463.321886,447.935828 500.115351,519.112403 547.417589,526.81478" id="Path-2796" stroke-width="25"></path>
                    <path d="M541.045484,524.76805 C541.045484,524.76805 611.868245,541.580772 611.868241,524.028756 C611.868238,506.476739 578.068358,539.811454 536.70109,435.828422 C495.333821,331.845391 522.993122,168.891001 465.000293,138.017314 C407.007465,107.143627 367.062061,138.017314 367.062061,138.017314" id="Path-2797" stroke-width="25"></path>
                    <path d="M189.848633,517.392439 C189.848633,517.392439 167.860912,613.019654 108.123185,680.781929 C48.3854571,748.544203 178.221374,955.408277 178.221374,955.408277 C178.509763,955.872376 178.396896,955.956177 177.980498,955.6028 C177.980498,955.6028 -3.79132941,803.270506 20.8885522,707.52436 C43.6852577,619.084037 90.1203642,589.527913 98.9897775,573.70626 C118.465432,538.964723 94.1999444,479.419487 94.1999444,479.419487 C94.1999444,479.419487 122.290695,460.704592 127.150565,458.812193 C136.834385,455.041383 156.202025,447.499763 156.202025,447.499763 C156.202025,447.499763 163.536002,478.583259 169.319456,490.800556 C172.979713,498.532692 189.848631,520.314125 189.848631,520.314125" id="Path-2798" stroke-width="25" fill="#FFFFFF"></path>
                    <path d="M473.31584,704.011575 L466.060624,644.564488" id="Path-2800" stroke-width="25"></path>
                </g>
                <path d="M350.175376,139.86378 C350.175376,139.86378 338.993096,73.1500488 266.563879,117.409433 C194.134662,161.668817 181.111361,262.617878 149.631737,316.341309 C135.134261,341.082841 143.113087,375.782623 92.7643812,400.822235 C42.4156754,425.861847 12.9978685,512.945164 4.29725525,515.182556 C-4.17187079,517.360421 -1.19708697,416.053184 33.4709586,386.441376 C64.8232195,359.661754 92.7643812,340.048767 105.737671,284.157944 C134.128262,161.847134 185.14816,112.656006 200.86501,94.8454647 C223.432821,69.2713232 256.596107,10.406272 318.986459,44.1996406 C381.376811,77.9930091 365.935871,136.897226 365.935871,136.897226" id="Path-2793" stroke-width="25" fill="#FFFFFF"></path>
                <path d="M55.3095593,507.407423 C55.3095593,507.407423 127.441824,449.878965 159.58371,413.715593 C191.725595,377.55222 191.408477,289.259551 218.944447,244" id="Path-2794" stroke-width="25"></path>
            </g>
            <g id="Group-4-Copy" transform="translate(2834.000000, 404.000000)">
                <g id="Group-2" transform="translate(0.309559, 0.000000)">
                    <g id="Group-Copy" transform="translate(0.000000, 94.000000)">
                        <path d="M496.346985,252.656549 C496.346985,252.656549 496.758178,222 457.28387,222 C417.809563,222 426.344886,310.281392 434.057827,326.118464 C441.770768,341.955536 442.559922,360.974133 456.503023,360.974142 C470.446124,360.974152 497.647012,345.224293 497.647012,345.224293" id="Path-2631-Copy" stroke-width="25" fill="#FFFFFF" transform="translate(462.583752, 291.487071) scale(-1, 1) translate(-462.583752, -291.487071) "></path>
                        <path d="M587.595567,1344.49816 C594.589309,1352.49829 601.656975,1361.10063 601.656975,1375.17922 C601.656975,1403.04493 605.015302,1442.37521 580.305289,1440.93478 C555.595275,1439.49435 568.764639,1391.58586 568.764639,1383.74762 C568.764639,1375.90938 552.001704,1353.43182 552.001704,1353.43182 C552.001704,1353.43182 547.529761,1348.42182 547.529761,1353.43182 C547.529761,1358.44183 554.373743,1379.31635 554.373743,1379.31635 C554.373743,1379.31635 562.762694,1389.92 554.118736,1396.18288 C535.7634,1408.27581 526.338401,1396.21122 517.487847,1379.31636 C508.637293,1362.42149 513.108761,1318.82279 513.108761,1318.82279" id="Path-2639-Copy-2" stroke-width="25"></path>
                        <use id="Rectangle-979-Copy" mask="url(#mask-12)" stroke-width="50" fill="#FFFFFF" xlink:href="#path-11"></use>
                        <path d="M76.49173,1345.49816 C83.4854723,1353.49829 90.5531379,1362.10063 90.553138,1376.17922 C90.5531384,1404.04493 93.9114655,1443.37521 69.2014521,1441.93478 C44.4914387,1440.49435 57.6608028,1392.58586 57.6608027,1384.74762 C57.6608026,1376.90938 40.8978671,1354.43182 40.8978671,1354.43182 C40.8978671,1354.43182 36.4259244,1349.42182 36.4259242,1354.43182 C36.4259239,1359.44183 43.2699065,1380.31635 43.2699065,1380.31635 C43.2699065,1380.31635 51.6588572,1390.92 43.0148992,1397.18288 C24.6595629,1409.27581 15.2345641,1397.21122 6.38401003,1380.31636 C-2.46654403,1363.42149 6.38401014,1317.15592 6.38401014,1317.15592" id="Path-2639-Copy" stroke-width="25" transform="translate(46.578486, 1379.564583) scale(-1, 1) translate(-46.578486, -1379.564583) "></path>
                        <path d="M386.964463,257.881295 C398.97916,257.881295 411.414282,248.141173 411.414282,237.460452 C411.414282,226.779731 398.97916,218.121297 386.964463,218.121297 C374.949765,218.121297 363.184282,226.779731 363.184282,237.460452 C363.184282,248.141173 374.949765,257.881295 386.964463,257.881295 Z" id="Oval-1831-Copy" fill="#979797"></path>
                        <path d="M226.78018,256.759998 C238.794878,256.759998 251.23,248.083276 251.23,237.379998 C251.23,226.67672 238.794878,218 226.78018,218 C214.765483,218 203,226.67672 203,237.379998 C203,248.083276 214.765483,256.759998 226.78018,256.759998 Z" id="Oval-1831-Copy-2" fill="#979797"></path>
                        <path d="M256,399.496968 C256,399.496968 275.332601,418.305636 302.001537,418.305636 C328.670472,418.305635 350.129997,398 350.129997,398" id="Path-2630" stroke-width="25"></path>
                        <path d="M250.790457,470.481991 C250.790457,470.481991 253.470703,552.213876 222.267208,570.422869" id="Path-2633" stroke-width="25"></path>
                        <path d="M383.29598,470 C383.29598,470 370.524291,555.585701 346.47675,578.446518" id="Path-2633-Copy" stroke-width="25" transform="translate(364.886365, 524.223259) scale(-1, 1) translate(-364.886365, -524.223259) "></path>
                        <path d="M212.939729,593.84775 C212.939729,593.84775 211.518886,651.446288 295.087678,651.446288 C378.65647,651.446288 388.106436,588.037993 388.106436,588.037993" id="Path-2635" stroke-width="25"></path>
                        <path d="M513.150157,1271.78875 C513.150157,1271.78875 517.562807,1340.5863 520.794855,1343.3942 C524.026903,1346.20211 587.735209,1348.38544 592.907847,1343.3942 C598.080485,1338.40296 592.907847,1271.78875 592.907847,1271.78875" id="Path-2785-Copy" stroke-width="25" fill="#D8D8D8" transform="translate(554.178477, 1309.081434) scale(-1, 1) translate(-554.178477, -1309.081434) "></path>
                        <path d="M153.690441,2027 C165.766063,2162.16602 177.949529,2252.57831 177.949529,2252.57831 L243.261388,2252.57831 C243.261388,2252.57831 246.902686,2106.79712 270.070028,1894.71475 C283.461164,1772.12736 304.707391,1372.91481 308.190441,1373 C322.138813,1373.34117 342.951238,1802.95264 342.951238,1894.71475 C342.951238,1986.47687 362.667516,2252.57831 362.667516,2252.57831 L426.761007,2252.57831 L462.690441,2027" id="Path-2645" stroke-width="25"></path>
                        <path d="M9.74482551,1275.63196 C9.74482551,1275.63196 6.51277732,1346.21287 9.74482536,1348.84945 C12.9768734,1351.48602 78.6390634,1350.26604 83.8117013,1345.57935 C88.9843392,1340.89267 83.8117013,1275.63196 83.8117013,1275.63196" id="Path-2785" stroke-width="25" fill="#D8D8D8"></path>
                        <path d="M3.0958624,562.349808 C1.30643672,560.255774 1.2412174,556.805543 2.97517217,554.650315 C2.97517217,554.650315 56.2700392,485.953703 79.8558206,493.558224 C89.9828739,496.823386 107.254492,583.940961 119.194747,588.218308 C138.187822,595.022181 158.511416,602.958465 177.100593,611.555909 C253.346565,646.819465 252.668022,881.861821 262.672599,971.818669 C272.677177,1061.77552 256.348063,1272.67615 256.348066,1278.46803 C256.348075,1291.15557 204.100593,1274.21305 204.100593,1274.21305 L164.226236,860 C164.226236,860 281.648985,1956.66192 256.348066,2005.55822 C225.707105,2019.52452 5.1284321,2031.32441 0.226235993,2005.55822 C-2.30505981,1992.25361 16.7881156,1251.47046 38.3115683,1102.55822 C46.6944947,1044.56008 134.270477,869.774648 127.703042,789.171481 C120.143479,696.39178 3.0958624,562.349808 3.0958624,562.349808 Z" id="Path-2636-Copy-3" stroke-width="25" fill="#D8D8D8" transform="translate(132.958338, 1256.871835) scale(-1, 1) translate(-132.958338, -1256.871835) "></path>
                        <path d="M340.306526,565.349808 C338.517101,563.255774 338.451881,559.805543 340.185836,557.650315 C340.185836,557.650315 393.480703,488.953703 417.066484,496.558224 C427.193538,499.823386 444.465156,586.940961 456.405411,591.218308 C475.398486,598.022181 495.72208,605.958465 514.311257,614.555909 C590.557229,649.819465 589.878686,884.861821 599.883263,974.818669 C609.887841,1064.77552 593.558726,1275.67615 593.55873,1281.46803 C593.558739,1294.15557 545.690441,1281.46803 545.690441,1281.46803 L482.690441,780 C482.690441,780 610.991359,1959.66192 585.690441,2008.55822 C555.049479,2022.52452 390.592637,2034.32441 385.690441,2008.55822 C383.159145,1995.25361 364.166988,1205.91223 385.690441,1057 C394.073367,999.001857 471.481141,872.774648 464.913706,792.171481 C457.354143,699.39178 340.306526,565.349808 340.306526,565.349808 Z" id="Path-2636-Copy-4" stroke-width="25" fill="#D8D8D8"></path>
                        <path d="M425,2249.38472 C425,2249.38472 439.45839,2292.99878 441.245026,2301.03208 C443.031663,2309.06537 460.683631,2330.98603 457.486382,2351.32923 C453.346478,2377.67028 413.160002,2373.6529 396.203002,2375.67244 C383.454482,2377.19076 380.810514,2366.74852 373.857171,2354.47015 C357.65508,2325.86014 362.764239,2257.34564 362.764239,2257.34564" id="Path-2646-Copy" stroke-width="25"></path>
                        <path d="M210,2248 C210,2248 224.45839,2291.61406 226.245026,2299.64735 C228.031663,2307.68065 245.683631,2329.6013 242.486382,2349.94451 C238.346478,2376.28555 198.160002,2372.26818 181.203002,2374.28772 C168.454482,2375.80604 165.810514,2365.3638 158.857171,2353.08543 C142.65508,2324.47541 147.764239,2255.96092 147.764239,2255.96092" id="Path-2646-Copy-2" stroke-width="25" transform="translate(194.936302, 2311.217488) scale(-1, 1) translate(-194.936302, -2311.217488) "></path>
                        <path d="M458.431689,2344.40574 C458.431689,2344.40574 463.848447,2390.63701 458.431689,2402.62768 C453.014931,2414.61834 402.442541,2430.44278 380.6432,2416.53523 C358.843858,2402.62768 362.183738,2271.37755 362.183738,2271.37755" id="Path-2647-Copy" stroke-width="25"></path>
                        <path d="M239.431689,2345.02819 C239.431689,2345.02819 244.848447,2391.25947 239.431689,2403.25013 C234.014931,2415.2408 183.442541,2431.06523 161.6432,2417.15768 C139.843858,2403.25013 143.183738,2272 143.183738,2272" id="Path-2647-Copy-2" stroke-width="25" transform="translate(192.419568, 2347.292175) scale(-1, 1) translate(-192.419568, -2347.292175) "></path>
                    </g>
                    <polygon id="Path-2-Copy" stroke-width="25" transform="translate(522.805800, 1581.000000) scale(-1, 1) translate(-522.805800, -1581.000000) " points="534.92116 1119 556.8058 2043 488.8058 2038 499.92116 1408"></polygon>
                    <polygon id="Path-2-Copy" stroke-width="25" points="87.1153596 1118 109 2042 41 2037 52.1153596 1407"></polygon>
                    <path d="M404.065155,191.517303 C379.084442,169.542496 384.835052,173.851364 377.575378,166.427841 C370.315704,159.004318 361.270996,134.455376 314.045502,140.996292 C275.04202,140.996292 279.760599,212.100437 255.729845,265 C243.317946,292.322656 155.329872,334.010913 148.690441,355 C137.501207,390.37228 146.098953,438.557831 149.098953,451.933533 C152.098953,465.309235 168.702662,498.753443 182.227556,515.282139 C205.402895,543.604588 81.0989532,689 149.098953,739 C176.411989,759.083115 240.676513,758.815243 247.690441,794 C250.998957,810.596881 231.205774,859.995466 194.690441,895 C158.175107,930.004534 95.5881917,958.58373 95.5881917,958.58373 C95.0923775,958.813629 94.9207018,958.612445 95.1969391,958.145736 C95.1969391,958.145736 123.923331,910 148.690441,857 C173.45755,804 155.690441,828 70.6904407,777 C-14.3095593,726 56.6722242,628.625513 56.6722242,571.953826 C56.6722242,515.282139 48.9240912,446.766616 48.924091,415.215881 C48.9240904,317.423161 71.1334193,139.911988 173.45755,50.608562 C275.781681,-38.6948636 384.079773,16.0958356 396.90567,26.0282787 C404.659926,32.0332159 405.765495,43.5638074 419.35611,50.6085626 C428.244998,55.2161573 445.906715,50.3481724 462.343079,67.0046008 C469.411835,74.1679999 503.697022,108.039081 510.715637,124.490315 C544.968823,204.777825 510.715637,377.186462 553.283255,467.727181 C595.850873,558.2679 617.690441,536 602.690441,640 C587.690441,744 517.654899,755.404469 510.715637,787 C503.776376,818.595531 576.20631,948.129325 576.20631,948.129325 C576.473688,948.610186 576.309222,948.763474 575.841241,948.471127 C575.841241,948.471127 425.690441,856 425.690441,787 C425.690441,718 477.705408,759.150843 495.690441,640 C503.690441,587 448.220874,517.153495 456.979706,468.791534 C463.415802,433.254578 464.417851,403.305266 462.343079,377.186462 C456.731744,306.546752 455.375496,286.952683 435.242065,236.907272 C433.188433,231.802585 429.045868,213.492111 404.065155,191.517303 Z" id="Path-2784" stroke-width="25" fill="#FFFFFF"></path>
                    <path d="M306.690441,336 C306.690441,336 309.831966,366.068147 292.3947,386.364703 C274.957433,406.661258 273,418.707672 273,418.707672 C273,418.707672 276.487161,435.701811 286.858634,435.701813 C297.230107,435.701814 331.690441,427 331.690441,427" id="Path-2629" stroke-width="25"></path>
                </g>
                <path d="M53.3095593,484.407423 C53.3095593,484.407423 149,448 143,388" id="Path-2794" stroke-width="25"></path>
                <path d="M253.5,1309.5 L355.5,1305.5" id="Line" stroke-width="25" stroke-linecap="square"></path>
            </g>
        </g>
    </g>
</svg>