<?xml version="1.0" encoding="UTF-8" standalone="no"?>
<svg width="1440px" height="550px" viewBox="0 0 1440 550" version="1.1" xmlns="http://www.w3.org/2000/svg" xmlns:xlink="http://www.w3.org/1999/xlink">
    <!-- Generator: Sketch 42 (36781) - http://www.bohemiancoding.com/sketch -->
    <title>Artboard 3</title>
    <desc>Created with Sketch.</desc>
    <defs>
        <path d="M116.278088,207.203775 C180.496702,207.203775 232.556175,160.81963 232.556175,103.601887 C232.556175,46.3841449 180.496702,0 116.278088,0 C52.0594731,0 2.84217094e-14,46.3841449 2.84217094e-14,103.601887 C2.84217094e-14,124.279087 6.79863598,143.541489 18.512868,159.711333 C25.893909,169.899818 6.51329892e-14,198.041111 6.51329892e-14,198.041111 C6.51329892e-14,198.041111 26.1667084,201.607873 68.3985738,198.041111 C84.3533634,196.693623 99.2095659,207.203775 116.278088,207.203775 Z" id="path-1"></path>
        <mask id="mask-2" maskContentUnits="userSpaceOnUse" maskUnits="objectBoundingBox" x="-10" y="-10" width="252.556175" height="227.203775">
            <rect x="-10" y="-10" width="252.556175" height="227.203775" fill="white"></rect>
            <use xlink:href="#path-1" fill="black"></use>
        </mask>
        <path d="M232.553916,273.852423 C296.77253,273.852423 348.832003,227.468279 348.832003,170.250536 C348.832003,113.032794 296.77253,66.6486486 232.553916,66.6486486 C168.335301,66.6486486 116.275828,113.032794 116.275828,170.250536 C116.275828,190.927736 123.074464,210.190137 134.788696,226.359981 C142.506652,237.013531 124.893094,261.515344 124.893094,261.515344 C124.893094,261.515344 145.466936,268.001091 184.674402,264.689759 C200.629191,263.342271 215.485394,273.852423 232.553916,273.852423 Z" id="path-3"></path>
        <mask id="mask-4" maskContentUnits="userSpaceOnUse" maskUnits="objectBoundingBox" x="-10" y="-10" width="252.556175" height="227.203775">
            <rect x="106.275828" y="56.6486486" width="252.556175" height="227.203775" fill="white"></rect>
            <use xlink:href="#path-3" fill="black"></use>
        </mask>
        <rect id="path-5" x="20.6451613" y="20.6144068" width="276.0553" height="193.186441" rx="8"></rect>
        <mask id="mask-6" maskContentUnits="userSpaceOnUse" maskUnits="objectBoundingBox" x="0" y="0" width="276.0553" height="193.186441" fill="white">
            <use xlink:href="#path-5"></use>
        </mask>
        <path d="M0.0196125249,63.9903813 C-0.545559148,51.8454291 11.1735478,42 26.1879652,42 L118.888023,42 C133.905577,42 145.621792,51.8401639 145.056376,63.9903813 L136.120661,256.009619 C135.555489,268.154571 124.738555,278 111.966322,278 L33.1096661,278 C20.334765,278 9.52074438,268.159836 8.95532769,256.009619 L0.0196125249,63.9903813 Z" id="path-7"></path>
        <mask id="mask-8" maskContentUnits="userSpaceOnUse" maskUnits="objectBoundingBox" x="0" y="0" width="145.07601" height="236" fill="white">
            <use xlink:href="#path-7"></use>
        </mask>
    </defs>
    <g id="Page-1" stroke="none" stroke-width="1" fill="none" fill-rule="evenodd">
        <g id="Artboard-3">
            <g id="Group" transform="translate(103.000000, 209.000000)">
                <g id="Oval-9">
                    <use fill="#BBDFFA" fill-rule="evenodd" xlink:href="#path-1"></use>
                    <use stroke="#FFFFFF" mask="url(#mask-2)" stroke-width="20" xlink:href="#path-1"></use>
                </g>
                <g id="Oval-9-Copy" transform="translate(232.553916, 170.250536) scale(-1, 1) translate(-232.553916, -170.250536) ">
                    <use fill="#CEF0F9" fill-rule="evenodd" xlink:href="#path-3"></use>
                    <use stroke="#FFFFFF" mask="url(#mask-4)" stroke-width="20" xlink:href="#path-3"></use>
                </g>
            </g>
            <g id="Group" transform="translate(544.000000, 205.000000)">
                <rect id="Rectangle-2" fill="#BBDFFA" x="75.5023041" y="258.416314" width="174.746544" height="13.1048729" rx="6.55243644"></rect>
                <rect id="Rectangle-19-Copy" fill="#BBDFFA" x="0" y="0" width="316.903226" height="234.268008" rx="22"></rect>
                <use id="Rectangle-19-Copy-2" stroke="#FFFFFF" mask="url(#mask-6)" stroke-width="20" fill="#EEFAFD" xlink:href="#path-5"></use>
                <rect id="Rectangle" fill="#BBDFFA" x="141.419355" y="222.930085" width="42.764977" height="41.9650424"></rect>
                <rect id="Rectangle-19" stroke="#FFFFFF" stroke-width="10" fill="#BBDFFA" x="229.013825" y="84.8135593" width="122.986175" height="193.186441" rx="22"></rect>
                <rect id="Rectangle-19" fill="#EEFAFD" x="242.875576" y="107.047669" width="95.3364055" height="142.82839" rx="8"></rect>
                <ellipse id="Oval" fill="#EEFAFD" cx="290.865319" cy="261.439026" rx="6.30888881" ry="6.29949064"></ellipse>
                <rect id="Rectangle-3" fill="#EEFAFD" x="269.124424" y="98.6277556" width="42.9124424" height="4.41737288" rx="2.20868644"></rect>
                <rect id="Rectangle-3-Copy" fill="#EEFAFD" x="316.75576" y="98.6277556" width="4.42396313" height="4.41737288" rx="2.20868644"></rect>
            </g>
            <g id="Group-4" transform="translate(1037.000000, 169.000000)">
                <g id="Group-3">
                    <use id="Rectangle-20" stroke="#FFFFFF" mask="url(#mask-8)" stroke-width="20" fill="#BBDFFA" xlink:href="#path-7"></use>
                    <ellipse id="Oval-10-Copy-3" fill="#FFFFFF" cx="77.5" cy="243.503255" rx="7.5" ry="7.50325489"></ellipse>
                    <ellipse id="Oval-10-Copy-11" fill="#FFFFFF" cx="112.5" cy="241.503255" rx="7.5" ry="7.50325489"></ellipse>
                    <ellipse id="Oval-10-Copy-8" fill="#FFFFFF" cx="57.5952381" cy="186.773351" rx="7.5" ry="7.50325489"></ellipse>
                    <ellipse id="Oval-10-Copy-4" fill="#FFFFFF" cx="38.744898" cy="208.959847" rx="7.5" ry="7.50325489"></ellipse>
                    <ellipse id="Oval-10-Copy-6" fill="#FFFFFF" cx="77.5544218" cy="206.741197" rx="7.5" ry="7.50325489"></ellipse>
                    <ellipse id="Oval-10-Copy-9" fill="#FFFFFF" cx="96.4047619" cy="186.773351" rx="7.5" ry="7.50325489"></ellipse>
                    <ellipse id="Oval-10-Copy-5" fill="#FFFFFF" cx="37.5" cy="235.503255" rx="7.5" ry="7.50325489"></ellipse>
                    <ellipse id="Oval-10-Copy-10" fill="#FFFFFF" cx="29.8741497" cy="167.91483" rx="7.5" ry="7.50325489"></ellipse>
                    <ellipse id="Oval-10-Copy-7" fill="#FFFFFF" cx="105.27551" cy="211.178496" rx="7.5" ry="7.50325489"></ellipse>
                    <path d="M79.0304573,8.7754547 C79.0873219,4.3576839 82.7233944,0.776373072 87.127661,0.776373072 L89.9895185,0.776373072 C94.4046161,0.776373072 97.9375778,4.36422475 97.8807975,8.7754547 L95.0892597,225.648315 C95.0323952,230.066086 91.3963226,233.647397 86.9920561,233.647397 L84.1301985,233.647397 C79.715101,233.647397 76.1821392,230.059545 76.2389196,225.648315 L79.0304573,8.7754547 Z" id="Rectangle-21" fill="#EEFAFD" transform="translate(87.059859, 117.211885) rotate(11.000000) translate(-87.059859, -117.211885) "></path>
                </g>
                <g id="Group-2" transform="translate(109.000000, 129.000000)">
                    <path d="M71.3625886,8.04100291 C76.1328992,-1.92276787 83.8653173,-1.92649303 88.6374114,8.04100291 L160,157.096386 C160,157.096386 147.878788,191 80,191 C12.1212121,191 0,157.096386 0,157.096386 L71.3625886,8.04100291 Z" id="Triangle-9" stroke="#FFFFFF" stroke-width="10" fill="#BBDFFA"></path>
                    <path d="M71.9662046,17.0461177 C76.7378653,7.07952702 84.4768186,7.08487967 89.2459166,17.0461177 L147.878788,139.512879 C147.878788,139.512879 137.68595,168.022736 80.6060606,168.022736 C23.5261708,168.022736 13.3333333,139.512879 13.3333333,139.512879 L71.9662046,17.0461177 Z" id="Triangle-9" stroke="#FFFFFF" stroke-width="10" fill="#BBDFFA"></path>
                    <ellipse id="Oval-10" fill="#EEFAFD" cx="62.5454545" cy="127.526958" rx="17.5454545" ry="17.5269578"></ellipse>
                    <path d="M62.7102339,92.9999597 C74.425365,92.9999597 83.9223551,83.5129814 83.9223551,71.8102007 C83.9223551,60.1074199 74.425365,50.6204416 62.7102339,50.6204416 L62.7102339,92.9999597 Z" id="Oval-10-Copy" fill="#EEFAFD" transform="translate(73.316295, 71.810201) rotate(26.000000) translate(-73.316295, -71.810201) "></path>
                    <path d="M95.4981127,131.216827 C107.213244,131.216827 116.710234,121.729849 116.710234,110.027068 C116.710234,98.3242874 107.213244,88.8373091 95.4981127,88.8373091 L95.4981127,131.216827 Z" id="Oval-10-Copy-2" fill="#EEFAFD" transform="translate(106.104173, 110.027068) scale(-1, 1) rotate(26.000000) translate(-106.104173, -110.027068) "></path>
                </g>
            </g>
            <text id="Essential-elements-f" font-family="Roboto-Medium, Roboto" font-size="32" font-weight="400" fill="#4C4C4C">
                <tspan x="479" y="117">Essential elements for Hackathon</tspan>
            </text>
        </g>
    </g>
</svg>