<?xml version="1.0" encoding="UTF-8" standalone="no"?>
<svg width="32px" height="26px" viewBox="0 0 32 26" version="1.1" xmlns="http://www.w3.org/2000/svg" xmlns:xlink="http://www.w3.org/1999/xlink">
    <!-- Generator: Sketch 42 (36781) - http://www.bohemiancoding.com/sketch -->
    <title>gmail 2</title>
    <desc>Created with Sketch.</desc>
    <defs></defs>
    <g id="Page-1" stroke="none" stroke-width="1" fill="none" fill-rule="evenodd">
        <g id="Icons-Notifications" transform="translate(-86.000000, -45.000000)" fill="#000000">
            <g id="gmail-2" transform="translate(86.000000, 45.000000)">
                <path d="M28.8,0 L3.2,0 C1.44,0 0,1.44 0,3.2 L0,22.4 C0,24.16 1.44,25.6 3.2,25.6 L28.8,25.6 C30.56,25.6 32,24.16 32,22.4 L32,3.2 C32,1.44 30.56,0 28.8,0 L28.8,0 Z M28.8,22.4 L25.6,22.4 L25.6,8.32 L16,14.4 L6.4,8.32 L6.4,22.4 L3.2,22.4 L3.2,3.2 L5.12,3.2 L16,9.92 L26.88,3.2 L28.8,3.2 L28.8,22.4 L28.8,22.4 Z" id="Shape"></path>
            </g>
        </g>
    </g>
</svg>